<svg width="28" height="18" viewBox="0 0 28 18" fill="none" xmlns="http://www.w3.org/2000/svg">
<g opacity="0.75">
<path d="M7.52305 11.2366C7.52305 12.0133 6.67627 12.4935 6.00972 12.0948L1.43471 9.35819C0.785824 8.97005 0.785824 8.02995 1.43471 7.64181L6.00972 4.90522C6.67626 4.50651 7.52305 4.98671 7.52305 5.7634V11.2366Z" fill="white"/>
<path fill-rule="evenodd" clip-rule="evenodd" d="M11.2821 1C11.2821 0.447715 11.7298 0 12.2821 0H20.5614C21.1137 0 21.5614 0.447715 21.5614 1V6.5C21.5614 7.05228 22.0092 7.5 22.5614 7.5H23.7737C24.326 7.5 24.7737 7.94772 24.7737 8.5V12.9113C24.7737 13.4435 25.2052 13.875 25.7374 13.875C26.2696 13.875 26.7011 13.4435 26.7011 12.9113V4.00225C26.7011 3.7476 26.604 3.50254 26.4295 3.31706L25.168 1.97609C24.9331 1.72639 24.9153 1.34271 25.1262 1.0724C25.3883 0.736335 25.8884 0.713204 26.1804 1.02364L27.9892 2.94635C27.9954 2.95296 27.9959 2.96312 27.9903 2.97028L27.9749 2.98998C27.9717 2.99405 27.9747 3 27.9798 3C27.9832 3 27.986 3.00278 27.986 3.0062V14.375C27.986 14.9273 27.5383 15.375 26.986 15.375H24.4888C23.9365 15.375 23.4888 14.9273 23.4888 14.375V9.96369C23.4888 9.43146 23.0574 9 22.5251 9C21.9929 9 21.5614 9.43146 21.5614 9.96369V17C21.5614 17.5523 21.1137 18 20.5614 18H12.2821C11.7298 18 11.2821 17.5523 11.2821 17V1ZM12.8882 2.875C12.8882 2.32272 13.336 1.875 13.8882 1.875H18.9553C19.5076 1.875 19.9553 2.32272 19.9553 2.875V6.125C19.9553 6.67728 19.5076 7.125 18.9553 7.125H13.8882C13.336 7.125 12.8882 6.67728 12.8882 6.125V2.875Z" fill="white"/>
</g>
</svg>
