<svg width="32" height="35" viewBox="0 0 32 35" fill="none" xmlns="http://www.w3.org/2000/svg">
<path d="M22.8119 33.5V23.3137C22.8119 22.4852 23.4834 21.8137 24.3119 21.8137H29.9293C31.1782 21.8137 31.8801 20.3767 31.1124 19.3916L17.1831 1.51815C16.5826 0.747557 15.4174 0.747557 14.8169 1.51815L0.887576 19.3916C0.119878 20.3767 0.821818 21.8137 2.07071 21.8137H7.68813C8.51655 21.8137 9.18813 22.4852 9.18813 23.3137V33.5C9.18813 34.3284 9.8597 35 10.6881 35H21.3119C22.1403 35 22.8119 34.3284 22.8119 33.5Z" fill="white" fill-opacity="0.1"/>
<path d="M15.4082 1.97949C15.6897 1.61831 16.2197 1.59517 16.5322 1.91113L16.5918 1.97949L30.5205 19.8525C30.9043 20.345 30.5539 21.0632 29.9297 21.0635H24.3115C23.0691 21.0637 22.0616 22.071 22.0615 23.3135V33.5C22.0615 33.9142 21.7257 34.25 21.3115 34.25H10.6885C10.2743 34.25 9.93848 33.9142 9.93848 33.5V23.3135C9.93838 22.071 8.93089 21.0637 7.68848 21.0635H2.07031C1.48504 21.0632 1.14038 20.432 1.41602 19.9473L1.47949 19.8525L15.4082 1.97949Z" stroke="url(#paint0_linear_1_485)" stroke-opacity="0.7" stroke-width="1.5"/>
<defs>
<linearGradient id="paint0_linear_1_485" x1="16" y1="0" x2="16" y2="35" gradientUnits="userSpaceOnUse">
<stop stop-color="white"/>
<stop offset="1" stop-color="white" stop-opacity="0"/>
</linearGradient>
</defs>
</svg>
