<svg width="17" height="18" viewBox="0 0 17 18" fill="none" xmlns="http://www.w3.org/2000/svg">
<g opacity="0.75">
<path fill-rule="evenodd" clip-rule="evenodd" d="M12.7641 16.6334C12.1428 16.053 11.1963 16.0494 10.5708 16.625L10.0703 17.0857C9.03356 18.0399 7.46645 18.0399 6.42976 17.0857L5.92921 16.6251C5.30375 16.0494 4.35724 16.053 3.73592 16.6334L2.92895 17.3872C2.23964 18.0311 1.241 18.1825 0.400802 17.7704L0.311583 17.7267C0.0391533 17.593 -0.0765288 17.2573 0.0531995 16.9767C0.182928 16.6961 0.508941 16.577 0.781371 16.7106L0.87059 16.7543C1.31069 16.9702 1.83379 16.8909 2.19486 16.5536L3.00183 15.7998C4.03737 14.8325 5.61488 14.8265 6.65731 15.7859L7.15786 16.2466C7.77987 16.8191 8.72014 16.8191 9.34215 16.2466L9.84272 15.7859C10.8851 14.8265 12.4626 14.8325 13.4982 15.7998L14.3052 16.5536C14.6663 16.8909 15.1894 16.9702 15.6295 16.7543L15.7186 16.7106C15.9911 16.577 16.3171 16.6961 16.4468 16.9767C16.5765 17.2573 16.4609 17.593 16.1884 17.7266L16.0993 17.7704C15.2591 18.1825 14.2604 18.0311 13.5711 17.3872L12.7641 16.6334Z" fill="white"/>
<path d="M4.76032 11.4721C4.75558 11.5489 4.75349 11.6265 4.75349 11.7045C4.75351 12.0119 4.79053 12.3103 4.86091 12.5951C4.45854 12.5891 4.05448 12.7343 3.73591 13.0317L2.92829 13.7856C2.23911 14.4293 1.24104 14.5811 0.400946 14.1694L0.311103 14.1254C0.0387396 13.9918 -0.0764235 13.656 0.0532901 13.3754C0.183004 13.095 0.508512 12.9755 0.780829 13.1088L0.870673 13.1528C1.31073 13.3685 1.83389 13.2898 2.19489 12.9526L3.00153 12.1987C3.50178 11.7314 4.12854 11.4902 4.76032 11.4721ZM11.7379 11.4721C12.37 11.49 12.9971 11.7311 13.4976 12.1987L14.3052 12.9526C14.6663 13.2896 15.1895 13.3685 15.6295 13.1528L15.7183 13.1088C15.9907 12.9754 16.3171 13.0949 16.4468 13.3754C16.5764 13.656 16.4604 13.9918 16.1881 14.1254L16.0992 14.1694C15.259 14.5815 14.2602 14.4295 13.5709 13.7856L12.7642 13.0317C12.4453 12.7337 12.0402 12.5888 11.6373 12.5951C11.7077 12.3102 11.7466 12.012 11.7466 11.7045C11.7466 11.6265 11.7426 11.5489 11.7379 11.4721ZM10.8726 11.7045C10.8726 12.2129 10.7318 12.6862 10.4947 13.0922L10.0699 13.4848C9.03323 14.4387 7.46589 14.4388 6.42927 13.4848L6.00251 13.0912C5.76597 12.6856 5.62756 12.2122 5.62751 11.7045C5.62751 11.6673 5.63094 11.6301 5.63239 11.5932C6.00144 11.7088 6.35225 11.9047 6.65681 12.185L7.15778 12.6449C7.77977 13.2174 8.71936 13.2173 9.34138 12.6449L9.84235 12.185C10.1469 11.9047 10.4977 11.7078 10.8668 11.5922C10.8682 11.6294 10.8726 11.6669 10.8726 11.7045Z" fill="white"/>
<path fill-rule="evenodd" clip-rule="evenodd" d="M8.24986 0C7.76708 0 7.3757 0.403088 7.3757 0.900321V9.0032C7.3757 9.05406 7.3798 9.10394 7.38767 9.1525C6.36276 9.51973 5.6272 10.5235 5.6272 11.7042C5.6272 13.1959 6.80132 14.4051 8.24967 14.4051C9.69803 14.4051 10.8722 13.1959 10.8722 11.7042C10.8722 10.5236 10.1368 9.51996 9.11204 9.15263C9.11992 9.10402 9.12402 9.05411 9.12402 9.0032V0.90032C9.12402 0.403087 8.73265 0 8.24986 0Z" fill="white"/>
<path fill-rule="evenodd" clip-rule="evenodd" d="M10.8722 1.12542C10.5101 1.12542 10.2166 1.42773 10.2166 1.80066C10.2166 2.17358 10.5101 2.4759 10.8722 2.4759H12.4262C12.7883 2.4759 13.0819 2.17358 13.0819 1.80066C13.0819 1.42773 12.7883 1.12542 12.4262 1.12542H10.8722Z" fill="white"/>
<path fill-rule="evenodd" clip-rule="evenodd" d="M10.8722 3.37615C10.5101 3.37615 10.2166 3.67847 10.2166 4.05139C10.2166 4.42432 10.5101 4.72663 10.8722 4.72663H12.4262C12.7883 4.72663 13.0819 4.42432 13.0819 4.05139C13.0819 3.67847 12.7883 3.37615 12.4262 3.37615H10.8722Z" fill="white"/>
<path fill-rule="evenodd" clip-rule="evenodd" d="M10.8722 5.62698C10.5101 5.62698 10.2166 5.9293 10.2166 6.30222C10.2166 6.67515 10.5101 6.97746 10.8722 6.97746H12.4262C12.7883 6.97746 13.0819 6.67515 13.0819 6.30222C13.0819 5.9293 12.7883 5.62698 12.4262 5.62698H10.8722Z" fill="white"/>
<path fill-rule="evenodd" clip-rule="evenodd" d="M10.8722 7.87781C10.5101 7.87781 10.2166 8.18013 10.2166 8.55305C10.2166 8.92598 10.5101 9.22829 10.8722 9.22829H12.4262C12.7883 9.22829 13.0819 8.92598 13.0819 8.55305C13.0819 8.18013 12.7883 7.87781 12.4262 7.87781H10.8722Z" fill="white"/>
</g>
</svg>
