<svg width="708" height="74" viewBox="0 0 708 74" fill="none" xmlns="http://www.w3.org/2000/svg">
<path d="M31.835 74H19.3C13.2433 74 8.56667 72.39 5.27 69.17C1.97333 65.95 0.325 61.3117 0.325 55.255V18.8C0.325 12.7433 1.97333 8.105 5.27 4.885C8.56667 1.665 13.2433 0.0549992 19.3 0.0549992H31.835C37.815 0.0549992 42.4533 1.70333 45.75 5C49.1233 8.22 50.81 12.82 50.81 18.8V24.205C50.81 25.8917 49.9667 26.735 48.28 26.735H38.62C37.01 26.735 36.205 25.8917 36.205 24.205V19.49C36.205 17.0367 35.6683 15.3117 34.595 14.315C33.5983 13.2417 31.8733 12.705 29.42 12.705H21.6C19.2233 12.705 17.4983 13.2417 16.425 14.315C15.4283 15.3117 14.93 17.0367 14.93 19.49V54.565C14.93 57.0183 15.4283 58.7817 16.425 59.855C17.4983 60.8517 19.2233 61.35 21.6 61.35H29.42C31.8733 61.35 33.5983 60.8517 34.595 59.855C35.6683 58.7817 36.205 57.0183 36.205 54.565V49.85C36.205 48.1633 37.01 47.32 38.62 47.32H48.28C49.9667 47.32 50.81 48.1633 50.81 49.85V55.255C50.81 61.235 49.1233 65.8733 45.75 69.17C42.4533 72.39 37.815 74 31.835 74ZM90.4949 74H80.7199C79.1099 74 78.3049 73.195 78.3049 71.585V46.975L57.2599 2.58499C56.9532 1.89499 56.9532 1.31999 57.2599 0.859996C57.6432 0.323331 58.1799 0.0549992 58.8699 0.0549992H71.0599C72.2865 0.0549992 73.2065 0.859998 73.8199 2.47L85.3199 30.415H86.1249L97.3949 2.47C97.9316 0.859998 98.8516 0.0549992 100.155 0.0549992H112.345C113.112 0.0549992 113.648 0.284999 113.955 0.744997C114.338 1.205 114.338 1.81833 113.955 2.58499L92.9099 46.975V71.585C92.9099 73.195 92.1049 74 90.4949 74ZM138.634 61.81H151.514C154.044 61.81 155.846 61.3117 156.919 60.315C158.069 59.2417 158.644 57.5167 158.644 55.14V48.47C158.644 46.0933 158.069 44.4067 156.919 43.41C155.769 42.4133 153.891 41.915 151.284 41.915H138.634C137.791 41.915 137.369 42.3367 137.369 43.18V60.545C137.369 61.3883 137.791 61.81 138.634 61.81ZM138.634 30.07H150.364C152.817 30.07 154.619 29.5717 155.769 28.575C156.919 27.5017 157.494 25.7767 157.494 23.4V18.915C157.494 16.5383 156.919 14.8517 155.769 13.855C154.696 12.7817 152.932 12.245 150.479 12.245H138.634C137.791 12.245 137.369 12.6667 137.369 13.51V28.805C137.369 29.6483 137.791 30.07 138.634 30.07ZM122.764 71.585V2.47C122.764 0.859998 123.569 0.0549992 125.179 0.0549992H152.779C158.836 0.0549992 163.512 1.665 166.809 4.885C170.106 8.105 171.754 12.705 171.754 18.685V23.4C171.754 29.9167 168.726 34.1333 162.669 36.05C165.736 36.51 168.189 37.775 170.029 39.845C171.869 41.8383 172.789 44.7133 172.789 48.47V55.37C172.789 61.35 171.141 65.95 167.844 69.17C164.547 72.39 159.909 74 153.929 74H125.179C123.569 74 122.764 73.195 122.764 71.585ZM226.573 74H188.968C187.358 74 186.553 73.195 186.553 71.585V2.47C186.553 0.859998 187.358 0.0549992 188.968 0.0549992H226.573C228.106 0.0549992 228.873 0.859998 228.873 2.47V10.29C228.873 11.9 228.106 12.705 226.573 12.705H202.538C201.618 12.705 201.158 13.1267 201.158 13.97V28.92C201.158 29.7633 201.618 30.185 202.538 30.185H222.203C223.813 30.185 224.618 30.99 224.618 32.6V40.42C224.618 42.03 223.813 42.835 222.203 42.835H202.538C201.618 42.835 201.158 43.2567 201.158 44.1V60.085C201.158 60.9283 201.618 61.35 202.538 61.35H226.573C228.106 61.35 228.873 62.155 228.873 63.765V71.585C228.873 73.195 228.106 74 226.573 74ZM253.772 74H243.997C242.387 74 241.582 73.195 241.582 71.585V2.47C241.582 0.859998 242.387 0.0549992 243.997 0.0549992H271.367C277.347 0.0549992 282.024 1.70333 285.397 5C288.771 8.29666 290.457 12.935 290.457 18.915V27.885C290.457 36.5483 287.046 42.2983 280.222 45.135V45.595L292.527 71.24C293.217 73.08 292.566 74 290.572 74H281.257C279.877 74 278.881 73.8467 278.267 73.54C277.654 73.2333 277.156 72.5817 276.772 71.585L265.272 46.745H257.567C256.647 46.745 256.187 47.1667 256.187 48.01V71.585C256.187 73.195 255.382 74 253.772 74ZM257.452 35.015H268.722C271.176 35.015 272.977 34.5167 274.127 33.52C275.277 32.4467 275.852 30.76 275.852 28.46V19.49C275.852 17.1133 275.277 15.3883 274.127 14.315C272.977 13.2417 271.176 12.705 268.722 12.705H257.452C256.609 12.705 256.187 13.1267 256.187 13.97V33.75C256.187 34.5933 256.609 35.015 257.452 35.015ZM316.663 74H306.888C305.278 74 304.473 73.195 304.473 71.585V2.47C304.473 0.859998 305.278 0.0549992 306.888 0.0549992H334.948C340.928 0.0549992 345.566 1.70333 348.863 5C352.16 8.22 353.808 12.82 353.808 18.8V29.84C353.808 35.82 352.16 40.4583 348.863 43.755C345.566 46.975 340.928 48.585 334.948 48.585H320.458C319.538 48.585 319.078 49.0067 319.078 49.85V71.585C319.078 73.195 318.273 74 316.663 74ZM320.343 35.82H332.533C334.986 35.82 336.711 35.3217 337.708 34.325C338.705 33.2517 339.203 31.5267 339.203 29.15V19.49C339.203 17.0367 338.705 15.3117 337.708 14.315C336.711 13.2417 334.986 12.705 332.533 12.705H320.343C319.5 12.705 319.078 13.1267 319.078 13.97V34.555C319.078 35.3983 319.5 35.82 320.343 35.82ZM373.159 74H362.119C360.739 74 360.279 73.195 360.739 71.585L378.909 2.47C379.446 0.859998 380.596 0.0549992 382.359 0.0549992H397.654C399.571 0.0549992 400.721 0.859998 401.104 2.47L419.274 71.585C419.734 73.195 419.274 74 417.894 74H406.854C406.011 74 405.436 73.8467 405.129 73.54C404.823 73.1567 404.593 72.505 404.439 71.585L401.219 58.935H378.794L375.574 71.585C375.421 72.505 375.153 73.1567 374.769 73.54C374.463 73.8467 373.926 74 373.159 74ZM389.834 13.97L381.554 47.205H398.574L390.294 13.97H389.834ZM441.428 74H431.883C430.273 74 429.468 73.195 429.468 71.585V2.47C429.468 0.859998 430.273 0.0549992 431.883 0.0549992H440.508C442.118 0.0549992 443.191 0.591666 443.728 1.665L466.958 45.25H467.418V2.47C467.418 0.859998 468.223 0.0549992 469.833 0.0549992H479.378C480.988 0.0549992 481.793 0.859998 481.793 2.47V71.585C481.793 73.195 480.988 74 479.378 74H470.983C469.296 74 468.07 73.2333 467.303 71.7L444.303 28.92H443.843V71.585C443.843 73.195 443.038 74 441.428 74ZM512.609 61.35H525.144C527.597 61.35 529.322 60.8517 530.319 59.855C531.392 58.7817 531.929 57.0183 531.929 54.565V19.49C531.929 17.0367 531.392 15.3117 530.319 14.315C529.322 13.2417 527.597 12.705 525.144 12.705H512.609C511.765 12.705 511.344 13.1267 511.344 13.97V60.085C511.344 60.9283 511.765 61.35 512.609 61.35ZM496.739 71.585V2.47C496.739 0.859998 497.544 0.0549992 499.154 0.0549992H527.559C533.539 0.0549992 538.177 1.70333 541.474 5C544.847 8.22 546.534 12.82 546.534 18.8V55.255C546.534 61.235 544.847 65.8733 541.474 69.17C538.177 72.39 533.539 74 527.559 74H499.154C497.544 74 496.739 73.195 496.739 71.585ZM575.483 2.47V71.585C575.483 73.195 574.678 74 573.068 74H563.293C561.683 74 560.878 73.195 560.878 71.585V2.47C560.878 0.859998 561.683 0.0549992 563.293 0.0549992H573.068C574.678 0.0549992 575.483 0.859998 575.483 2.47ZM602.922 74H593.377C591.767 74 590.962 73.195 590.962 71.585V2.47C590.962 0.859998 591.767 0.0549992 593.377 0.0549992H602.002C603.612 0.0549992 604.686 0.591666 605.222 1.665L628.452 45.25H628.912V2.47C628.912 0.859998 629.717 0.0549992 631.327 0.0549992H640.872C642.482 0.0549992 643.287 0.859998 643.287 2.47V71.585C643.287 73.195 642.482 74 640.872 74H632.477C630.791 74 629.564 73.2333 628.797 71.7L605.797 28.92H605.337V71.585C605.337 73.195 604.532 74 602.922 74ZM678.358 61.35H686.523C688.976 61.35 690.701 60.8517 691.698 59.855C692.771 58.7817 693.308 57.0183 693.308 54.565V19.49C693.308 17.0367 692.771 15.3117 691.698 14.315C690.701 13.2417 688.976 12.705 686.523 12.705H678.358C675.904 12.705 674.179 13.2417 673.183 14.315C672.186 15.3117 671.688 17.0367 671.688 19.49V54.565C671.688 57.0183 672.186 58.7817 673.183 59.855C674.179 60.8517 675.904 61.35 678.358 61.35ZM688.938 74H676.058C670.001 74 665.324 72.39 662.028 69.17C658.731 65.95 657.083 61.3117 657.083 55.255V18.8C657.083 12.7433 658.731 8.105 662.028 4.885C665.324 1.665 670.001 0.0549992 676.058 0.0549992H688.938C694.994 0.0549992 699.671 1.665 702.968 4.885C706.264 8.105 707.913 12.7433 707.913 18.8V55.255C707.913 61.3117 706.264 65.95 702.968 69.17C699.671 72.39 694.994 74 688.938 74Z" fill="white"/>
</svg>
