<svg xmlns="http://www.w3.org/2000/svg" xml:space="preserve" viewBox="0 0 1732 331" class="App-logo" fill="#ffffff" style="fill-rule: evenodd; clip-rule: evenodd; stroke-linejoin: round; stroke-miterlimit: 2;"><path d="M.178-.271.175-.277l-.001.002-.002.001.003.002c.001.001.002.002.003.001Zm.285-.151c-.003 0-.007.002-.012.005-.006.004-.01.006-.013.005l-.004.001-.003.001c-.002 0-.003.001-.003.002l-.005.003C.42-.404.418-.403.417-.404H.416A.05.05 0 0 0 .4-.397a.101.101 0 0 1-.016.008c-.002 0-.003.001-.003.002a.002.002 0 0 1-.002.002.002.002 0 0 0-.002.002l-.002.001c-.003 0-.003.001-.002.002l.001.001L.371-.38c-.003-.001-.004 0-.004.002 0 .001-.001.002-.003.002-.003 0-.004.001-.004.003C.359-.37.356-.369.351-.37H.349l-.004.002H.343c.001.001 0 .002-.002.003-.002 0-.003.001-.003.002H.336l-.002.001-.001.002-.018.009c0 .001-.001.002-.004.002s-.004.001-.004.003l-.001.002-.004.002-.006.002-.006.002c-.002.002-.003.004-.002.005l-.002.001-.002.001H.281l-.007.004a.062.062 0 0 0-.012.009c-.004.003-.006.003-.006.002l-.004.002-.004.001H.247c.001.001 0 .002-.005.003a.002.002 0 0 1-.002.002l-.002.001-.005.003-.007.002-.007.004-.007.005-.005.002L.2-.289l-.003.001c0 .002-.002.003-.006.003l-.008.002C.181-.282.18-.28.181-.278c0 .002.001.003.002.003l.005.003.003.006.003.001a.002.002 0 0 0 .002-.002l.002-.002H.2l.003.004.004.003.001-.001c0-.002.002-.003.006-.003l.006.001c0 .003.005.005.014.005l.007.002c.003.002.006.002.007.001h.007a.008.008 0 0 0 .004.001l.007.002.006.002.011.003c.001.004.003.005.005.004s.003 0 .004.001c0 .002.001.003.004.003h.005l.004.003.015.003c.006 0 .009.001.009.004l.008.003c.005.001.008.002.009.001l.002.001c.001.003.004.004.008.004H.36l.002.001a.016.016 0 0 0 .008.003c.003 0 .004.001.004.004l.004.003.005.002c.001.001.003.001.004-.002.003-.003.006-.002.007.001 0 .001-.001.002-.003.002-.003 0-.004.001-.001.002l.007.001.008-.001.004.001.003.001.003.001.002.002c.001 0 .002.001.002.003s.001.002.005.001l.004-.001c0 .001.001.002.003.002l.004.002.006.003.007.001.001-.001.002.001.006.004c.003.001.004.002.005.001l.007.005c.006-.001.01 0 .012.004l.002.001h.001c0 .001.001.002.004.002l.008.003.008.004c.003 0 .004.001.004.003s.001.002.002.001h.003l.003.001.007.003.006.003.004.002a.017.017 0 0 0 .005.002l.003.001.003.003h.007a.012.012 0 0 1 .005.005c.001.003.004.004.008.005.005.001.007.002.007.003s.004.003.013.005l.004.001a.033.033 0 0 0 .006.003c.001-.003.005-.001.01.008a.008.008 0 0 1 .002.004c0 .003.001.005.002.005v-.003c-.001-.002.001-.002.004 0a.042.042 0 0 1 .005.002c.003 0 .005.001.005.003 0 .003.001.005.003.005.002.001.003.002.002.004s0 .004.001.004c.001.002.002.001.003 0 0-.001.002-.002.005-.002.003-.001.005.001.007.004.001.004.003.006.005.007.006.001.009.007.009.017 0 .003.001.004.002.004v.002l-.001.003v.004c-.001.005-.003.009-.008.01a.025.025 0 0 0-.01.004.018.018 0 0 1-.011.003L.622-.039C.619-.04.617-.041.614-.04s-.007 0-.01-.002C.6-.043.598-.045.597-.047c0-.001-.002-.003-.006-.005C.586-.053.584-.054.584-.055l-.02-.011A.008.008 0 0 1 .56-.068.008.008 0 0 0 .556-.07L.554-.072.551-.076c-.001-.001-.002 0-.003.001-.003.003-.005.001-.006-.004 0-.001-.003-.004-.009-.007L.52-.091.512-.095C.508-.098.505-.099.503-.099L.497-.101c0-.001-.001-.002-.003-.002L.489-.106C.486-.108.483-.109.481-.108c-.001.001-.004 0-.007-.003L.468-.115A.031.031 0 0 1 .457-.12L.448-.125.443-.129C.44-.132.438-.133.436-.133L.431-.135.424-.137A.011.011 0 0 1 .418-.14L.412-.142.408-.145.399-.148a.014.014 0 0 1-.01-.004C.386-.155.383-.156.382-.156c-.003 0-.006-.002-.011-.005C.366-.164.362-.165.36-.164c-.005.002-.01 0-.015-.007L.341-.172.335-.176.329-.18.326-.181c0-.001-.001-.002-.004-.002L.32-.184.314-.185a.043.043 0 0 1-.01-.003.043.043 0 0 0-.01-.003L.289-.192.285-.194l-.003.001H.278L.264-.194.251-.196l-.01-.001-.003-.001-.004-.001H.226l-.004.002H.218L.214-.198c-.002.001-.004 0-.006-.001L.202-.2l-.01-.001-.007-.001H.174L.169-.203H.164L.161-.204H.157c-.001.001-.002.002-.003.001L.149-.204.138-.205c-.003 0-.005.001-.005.002-.001.001-.003.002-.007.001H.121L.118-.203H.111a.003.003 0 0 1-.004 0c-.002-.001-.004 0-.005.001C.1-.201.098-.201.097-.203S.094-.205.091-.204l-.008.002-.006.001C.074-.2.071-.199.068-.2l-.01-.001-.007-.002c-.004-.001-.006 0-.006.001H.042C.04-.203.038-.204.037-.203H.034L.03-.204c-.002.001-.003 0-.002-.002L.027-.212c-.001.001-.003 0-.005-.002L.017-.217.016-.219c0-.002-.001-.003-.003-.003S.01-.223.01-.225.008-.229.005-.23.001-.233.001-.236a.03.03 0 0 1 .004-.013.036.036 0 0 0 .003-.011c0-.004.001-.006.002-.006a.008.008 0 0 0 .005-.002L.017-.27c.006 0 .009-.001.009-.004L.033-.28a.019.019 0 0 1 .011-.004c.003 0 .005-.001.008-.003l.006-.002.006-.003.006-.003.007-.002L.081-.3c0-.002.004-.004.011-.005.003 0 .005-.001.005-.002l.007-.002C.109-.31.111-.311.111-.312c0-.002.001-.003.004-.003.01 0 .017-.003.021-.01.001-.002.003-.003.006-.002.002.001.003 0 .004-.002l.002-.002a.245.245 0 0 1 .017-.008c.001 0 .003 0 .004-.002l.004-.002h.003l.004.001.005-.001.005-.001.004-.002.001-.002c0-.005.004-.008.011-.008l.007-.003a.022.022 0 0 1 .01-.003c.007-.001.01-.003.01-.006L.235-.37.24-.371l.003-.001c.001-.002.002-.003.005-.003s.004-.001.004-.002l.003-.002c.002 0 .003-.001.003-.002l.003-.001A.042.042 0 0 0 .27-.385l.011-.004.005-.003.002-.002a.027.027 0 0 0 .01-.004l.008-.003.003-.001.005-.004.005-.002.01-.008a.025.025 0 0 1 .01-.004.016.016 0 0 0 .011-.004l.005-.003.006-.003.003-.003.014-.007c.009-.004.013-.006.014-.005.001.001.002 0 .003-.002.001-.001.002-.003.001-.004l.003-.002c.003 0 .005-.001.006-.004.001-.002.003-.003.008-.004L.42-.463l.005-.003.005-.003c0-.002.001-.003.004-.003L.44-.474a.008.008 0 0 1 .004-.002c.001 0 .003 0 .004-.002l.003-.001h.002L.455-.48a.028.028 0 0 0 .009-.005L.47-.489c.004 0 .011-.004.022-.011l.009-.005.006-.004.009-.007.002-.004.001-.001c.004 0 .006-.003.006-.008l.004-.002c.003-.001.004-.003.004-.007l.003-.001.017-.011c.011-.007.018-.011.022-.011l.003.002H.58L.584-.56h.003l.005.002.01.002.006.004.004.003c.007.002.011.01.011.024 0 .007-.002.013-.005.016C.616-.504.612-.5.605-.496c-.011.005-.017.009-.019.013-.003.005-.008.007-.017.007l-.008.002a.033.033 0 0 1-.01.003.025.025 0 0 0-.009.004l-.008.004-.002.001-.002.001c-.003 0-.004.001-.005.002a.024.024 0 0 1-.009.008l-.01.005-.009.005-.009.006c-.003.001-.005.003-.005.004L.48-.43l-.004.002-.006.002a.008.008 0 0 0-.004.002l-.003.002Z" transform="matrix(375 0 0 375 -.375 255.482)" style="fill-rule: nonzero;"></path><path d="m.264-.433.001-.005v-.005l.001-.003c.002 0 .003-.004.004-.013s.002-.013.005-.013c.002 0 .002-.001.001-.002l.01-.013c.002-.001.003-.001.003.001h.009l.001-.001c.002-.004.006 0 .013.011l.002.007-.001.008-.001.008-.001.003-.001.003-.002.02-.001.004-.001.009a.03.03 0 0 1-.002.01l-.002.009-.002.01a.023.023 0 0 0-.003.009l-.003.017C.292-.357.291-.354.291-.35l-.005.023-.001.008c-.002.002-.003.006-.004.013C.281-.302.28-.3.279-.3s-.003.005-.006.016l-.005.019a.02.02 0 0 1-.002.009.03.03 0 0 0-.004.01.008.008 0 0 1-.002.005l-.003.005L.25-.21a.17.17 0 0 1-.006.018.067.067 0 0 0-.007.021.022.022 0 0 1-.003.01l-.009.028a.15.15 0 0 0-.008.027l-.002.007-.002.006-.001.003C.211-.089.21-.087.211-.086s0 .005-.002.01a.042.042 0 0 0-.003.009l-.004.016-.001.006L.2-.038l-.001.006-.001.003v.003l-.001.005-.002.007-.002.006-.005.02C.187.013.186.016.186.021L.184.028C.183.031.182.033.183.035L.181.043a.03.03 0 0 0-.002.008.064.064 0 0 1-.006.018L.172.071l.001.001.001.005C.174.079.173.08.172.08L.169.088.166.104a.03.03 0 0 1-.003.01.022.022 0 0 0-.003.01.062.062 0 0 1-.003.011.036.036 0 0 0-.004.011l-.002.01a.027.027 0 0 0-.003.008L.147.17.146.178c0 .004-.001.007-.003.009L.139.193C.138.196.137.197.135.197a.008.008 0 0 0-.004.002L.116.2C.107.2.102.199.102.196L.101.193C.099.193.098.192.099.189L.1.181.099.175V.166L.101.157.102.153.103.148.104.143.106.139.108.134.11.128.112.122.114.118.115.114.117.108.118.102V.099L.119.096C.118.095.119.091.121.084.122.077.124.073.125.072L.126.068.128.062A.061.061 0 0 0 .131.048C.131.04.132.035.133.034L.135.028.138.022.14.014.142.007.144.001C.143 0 .143-.001.145-.004v-.005c-.001-.001 0-.003.001-.005l.002-.004.001-.004a.003.003 0 0 0 0-.004v-.003l.002-.005.001-.007c0-.006.002-.013.005-.021a.054.054 0 0 0 .005-.019l.001-.007c.002-.001.003-.003.003-.007L.162-.107.159-.115.156-.12a.005.005 0 0 1-.003-.005.016.016 0 0 0-.003-.008L.146-.139a.033.033 0 0 0-.003-.01.027.027 0 0 0-.004-.008L.138-.159l.001-.002-.002-.001c-.002 0-.003-.001-.003-.004a.017.017 0 0 0-.003-.007L.128-.178.127-.18.126-.183l-.004-.01-.005-.009a.008.008 0 0 1-.002-.005L.114-.209.11-.216a.027.027 0 0 1-.003-.008L.105-.229.102-.233a.024.024 0 0 0-.004-.011l-.005-.01-.004-.009C.086-.266.085-.269.085-.271L.084-.275c-.001 0-.002-.002-.003-.007C.076-.297.072-.306.067-.307L.066-.31a.026.026 0 0 0-.003-.011C.061-.325.059-.327.057-.327c-.001 0-.002-.001-.002-.004L.053-.335.05-.34.048-.345.046-.35.042-.358a.028.028 0 0 1-.005-.008.008.008 0 0 0-.002-.004.008.008 0 0 1-.002-.004L.03-.379.027-.383.02-.399.011-.414.01-.419c0-.003-.001-.004-.002-.004L.007-.425A.008.008 0 0 0 .005-.43a.036.036 0 0 1-.004-.02l.001-.007.001-.004.002-.002.003-.002.003-.002C.013-.47.015-.47.018-.469c.002.002.004.003.005.002.005-.001.008 0 .008.005 0 .002.001.003.002.003l.001.002c0 .002.001.003.002.003l.006.009.005.011.002.002c.001 0 .002.002.002.006a.014.014 0 0 0 .004.008c.003.001.004.003.004.005l.003.004.003.004.002.005.002.006.004.004c.002.003.004.004.005.004l.001.002.009.018a.076.076 0 0 0 .011.019l.002.004.003.004.003.007.001.004c.001-.001.001 0 .001.001v.002l.003.007.002.005.001.001c.001 0 .002.001.002.004l.003.004.003.006.001.004.002.002.001.002c.002 0 .002.002.001.006-.001.003 0 .005.002.008l.003.006.003.005c.002.002.003.004.002.005l.003.007c.001.005.002.007.003.007.003 0 .004.003.004.008l.001.002.004.012c.001-.001.002 0 .003.003l.002.004.002.002.002.003.002.006.001.005.005.009.005.008.003.006c.001.005.003.008.006.009.003.001.005 0 .005-.002l.002-.008.002-.007.005-.015.003-.013.004-.016a.016.016 0 0 0 .003-.009c0-.002.001-.004.003-.005l.002-.005.003-.01.002-.005c.002 0 .003-.001.002-.003v-.005a.008.008 0 0 0 .002-.004l.003-.006.003-.006v-.003c.001 0 .002-.002.002-.005l.002-.006.002-.006L.233-.31l.001-.001v-.004c-.001-.001 0-.002.001-.003.001 0 .002-.001.002-.004l.002-.004.001-.008a.01.01 0 0 1 .003-.007l.001-.004.001-.003c.001 0 .002-.002.002-.006l.002-.011a.059.059 0 0 0 .002-.014l.002-.007.001-.006.001-.004.003-.015.002-.005.002-.003v-.003C.261-.423.261-.425.263-.428.264-.43.265-.432.264-.433Z" transform="matrix(375 0 0 375 247.123 255.482)" style="fill-rule: nonzero;"></path><path d="M.32-.303.299-.305.293-.307c-.003-.001-.005 0-.007.001H.275L.266-.308l-.012.001H.246L.233-.308C.232-.309.227-.31.22-.31L.201-.311.193-.31C.19-.309.187-.308.184-.309H.169L.168-.27l-.001.023-.001.016.001.004-.002.03a.041.041 0 0 1 .002.014c0 .003.001.005.002.005v.004l-.001.022a.062.062 0 0 1-.003.025c-.001 0-.002.002-.001.007l.001.008.001.004C.169-.107.174-.11.18-.117l.005-.005.006-.003.005-.003.012-.007c.001-.002.005-.003.01-.004.004 0 .007-.001.008-.003l.003-.003c.003 0 .004-.001.004-.003l.006-.005a.017.017 0 0 1 .007-.003l.007-.005.006-.004a.002.002 0 0 0 .002-.002l.004-.001c.003 0 .004-.001.004-.003S.27-.174.271-.174c.001.001.004 0 .007-.001.003 0 .004-.002.004-.003L.284-.18.29-.183l.005-.003L.3-.19l.004-.003.002-.001.013-.01c.005.001.008 0 .011-.005 0-.002.001-.003.003-.003s.003-.001.003-.002.001-.002.004-.002c.002 0 .003-.001.003-.003l.001-.003h.001c0 .004.004.003.011-.004L.363-.23a.027.027 0 0 1 .008-.003l.003-.004C.377-.24.38-.242.383-.241a.002.002 0 0 0 .002-.002c0-.002.001-.003.003-.003L.395-.25C.396-.253.398-.254.4-.254l.007-.007c.004-.005.007-.007.008-.007L.42-.271c.002-.002.004-.003.005-.002l.003-.001.005-.003.004-.003c0-.002.001-.003.002-.003.003 0 .004-.001.005-.004.001-.002 0-.004-.002-.005L.434-.294H.43c-.001.001-.003 0-.008-.001a.142.142 0 0 0-.026-.002A.238.238 0 0 1 .36-.3a.202.202 0 0 0-.029-.003H.32ZM.107-.651C.104-.661.105-.667.108-.668c.001 0 .002-.001.002-.003l.002-.003.004-.003.003-.002c.002-.003.005-.003.01-.001a.014.014 0 0 1 .008.009l.003.003.002.001.002.007.001.005.001.002c.001 0 .002.002.002.007l.002.015.001.012.002.007v.009C.152-.6.152-.596.155-.594c.002.003.003.007.002.011-.001.003 0 .006.001.009v.007a.014.014 0 0 0 0 .009c.001.003.002.005.001.008v.006l.001.002.001.004.001.004-.001.004c.001.003.001.006-.001.007-.003.001-.003.002-.002.004l.002.006c0 .002.001.003.002.003.003 0 .003.001.001.004l-.001.002-.001.002v.008c-.001.004 0 .006.001.007l.001.013v.005l-.001.005v.002l.002.005a.088.088 0 0 1 .002.02c0 .01.001.016.002.019l.001.014c.001-.001.001 0 .001.001a.002.002 0 0 1-.002.002l.001.01v.005a.02.02 0 0 0 0 .011l.002.01c-.001.003 0 .006.002.007a.018.018 0 0 0 .011.001h.018l.02-.001.008.001.008.001c.002.001.003.001.002-.001v-.002c.001-.001.002 0 .003.001 0 .001.002.002.007.002a.066.066 0 0 0 .014.001h.007l.007-.002.009.003.005.001c0-.001.002-.002.005-.002l.005.001c0 .001.001.002.003.002l.006-.001h.005l.01.001c.005 0 .009.001.011.003h.007L.347-.35h.012l.002.001.007-.001h.013l.006.001H.4c.011-.001.017 0 .018.001.005.005.007.005.007.001l.012.001H.48l.002-.002.001.001c0 .003.001.005.002.005l.012.001H.51l.006.003.006.007c.003.005.006.007.008.007.005 0 .007.002.007.006a.062.062 0 0 1-.003.011.066.066 0 0 0-.003.013c0 .007-.01.017-.03.03l-.01.008c0 .001-.001.002-.003.002l-.004.006-.007.007c-.002 0-.003.001-.003.002l-.002.001a.002.002 0 0 0-.002.002c0 .001-.001.002-.003.002-.003 0-.004.001-.004.003 0 .001-.002.003-.005.004-.003 0-.005.001-.005.002s-.002.003-.006.004L.44-.215.433-.21.43-.208l-.005.003-.004.003-.005.003-.004.003-.004.003-.004.003-.005.004-.006.003a.026.026 0 0 1-.007.003l-.002.002c0 .002-.001.003-.004.003s-.004.001-.004.002L.37-.17l-.006.003a.002.002 0 0 1-.002.002c-.001 0-.004.001-.007.004l-.006.004-.003.001L.34-.15l-.008.004-.003.002-.005.003-.001.001-.001.002c0 .001-.001.002-.004.002a.023.023 0 0 0-.012.006l-.001.001-.006.004-.007.005c-.002 0-.003.001-.003.002l-.002.001-.006.003c-.002.003-.007.006-.016.009a.053.053 0 0 0-.017.008.048.048 0 0 1-.012.008.09.09 0 0 0-.012.009.021.021 0 0 1-.007.004l-.009.007c-.005.005-.009.007-.011.007L.192-.06l-.006.003c-.003 0-.004.001-.004.003l-.003.002C.176-.051.175-.05.176-.047l.002.01.002.008v.006c.001 0 .002.002.001.005l-.002.006v.013C.178.002.177.004.178.006L.177.014C.175.018.175.021.176.022s0 .003-.001.006a.017.017 0 0 0-.002.005L.172.036H.169L.168.038C.169.039.168.04.165.043A.055.055 0 0 1 .156.05C.152.051.149.052.147.051L.14.05.134.048.129.046C.128.046.126.044.125.04A.032.032 0 0 0 .121.033C.118.031.117.029.118.026V-.003c-.001 0-.001-.003.001-.008.001-.003 0-.004-.001-.003a.014.014 0 0 1-.004.003c-.003.003-.005.004-.008.004A.011.011 0 0 0 .1-.004L.094 0 .087.005.08.01C.077.011.075.013.075.014L.073.015.058.028A.002.002 0 0 1 .056.03L.053.032a.064.064 0 0 1-.009.006.036.036 0 0 1-.011.004.002.002 0 0 0-.002.002L.028.047.021.044.017.042.012.04.007.033.003.028A.03.03 0 0 1 .001.015c0-.007.001-.011.003-.013L.006 0l.003-.005.002-.001.004-.003.004-.003c.002 0 .004-.001.006-.004.003-.006.008-.009.013-.009.001 0 .002-.001.002-.003 0-.001.001-.002.003-.002l.003-.002c.001-.002.003-.003.005-.002.003 0 .004-.001.004-.002 0-.002.001-.003.004-.003.004 0 .008-.003.012-.01.001-.002.002-.003.004-.003l.004-.002.003-.002.006-.002.005-.001c.003 0 .004-.001.004-.002L.1-.064l.004-.002.002-.002.001-.003a.025.025 0 0 0 .005-.007c.002-.004.003-.007.002-.009L.113-.092.112-.096.111-.099l.002-.008.002-.007c.001-.001 0-.003-.001-.005v-.006L.113-.133.112-.136c.002 0 .003-.005.003-.014L.114-.153v-.005l.002-.007c.001-.001.002-.003.001-.006l.001-.005.001-.005v-.006L.116-.193V-.202L.114-.21v-.012l.003-.003-.001-.003L.115-.23l.001-.013.001-.018a.037.037 0 0 0-.002-.012c-.001-.001 0-.004.002-.007s.002-.005.001-.008L.117-.301c0-.007-.001-.01-.002-.011L.096-.314a.095.095 0 0 1-.038-.007L.056-.322H.055L.049-.324.041-.326C.032-.327.027-.33.027-.333L.024-.339C.022-.342.023-.349.026-.36h.009l.008-.001h.005a.006.006 0 0 0 .006 0l.004.001.007.002.036.002c.01 0 .016-.001.018-.003l.002-.009L.12-.377C.119-.379.118-.382.119-.386a.017.017 0 0 0 0-.01v-.011L.12-.415v-.01L.119-.43.12-.432.119-.436.118-.442v-.014L.117-.464a.633.633 0 0 1-.003-.048v-.029L.112-.563.111-.578.11-.621a.096.096 0 0 0-.003-.03Z" transform="matrix(375 0 0 375 365.623 255.482)" style="fill-rule: nonzero;"></path><path d="M.119-.348.114-.35l-.01-.006-.005-.002-.002.001-.001-.002c0-.002-.001-.003-.004-.003L.088-.363.083-.364a.002.002 0 0 0-.002.002l.002.002c.002.002 0 .006-.005.011-.002.003-.002.007.001.012l.002.006-.002.013-.001.007a.077.077 0 0 1 .001.021c0 .014.001.021.002.021l.004-.003.005-.003C.097-.275.1-.277.1-.28l.002-.001a.027.027 0 0 0 .01-.004.042.042 0 0 1 .009-.003l.004-.003c0-.001.002-.002.006-.002.003 0 .005-.001.005-.002s.002-.002.005-.002a.04.04 0 0 0 .014-.005.04.04 0 0 1 .014-.005l.004-.001.009-.005a.027.027 0 0 1 .01-.004c.002 0 .006-.002.011-.006.005-.003.008-.005.01-.004v-.001C.212-.329.212-.33.214-.331c.002 0 .003-.001.003-.003H.202C.2-.333.198-.333.197-.335.195-.337.193-.338.19-.337s-.005 0-.007-.001H.178c-.001.001-.002 0-.003-.002C.174-.341.173-.342.171-.341H.162L.154-.342.148-.345a.122.122 0 0 1-.029-.003Zm-.087-.06.004-.004.003-.005c0-.003.003-.005.008-.005L.05-.424c.002-.003.006-.003.012-.002s.01.003.011.004l.01.001c.005 0 .008.001.008.002 0 .003.003.005.009.006l.009.003a.028.028 0 0 0 .013.003c.001 0 .002.001.002.003 0 .001 0 .002.001.001.002-.001.004-.002.007-.001l.008.002.006.002.002.002.002.004h.004L.16-.395c.003 0 .004.001.004.002l.006.001.023.001h.005l.005-.001.002.001.006.003.038.001.023.001h.002c0 .003.007.004.022.004.009 0 .014.001.017.003.003.002.005.003.008.002.002 0 .004.001.006.004l.006.005.003.003.003.003c.003-.002.004.002.004.013l-.001.008v.006c0 .004-.001.007-.004.009l-.005.005c0 .003-.005.005-.015.005l-.007.002-.007.004-.007.003a.017.017 0 0 1-.007.003.071.071 0 0 0-.014.006l-.013.007H.26L.255-.29l-.006.002-.003.001-.005.002-.006.002a.047.047 0 0 1-.018.013l-.004.001-.005.002-.003.001C.199-.267.195-.265.194-.26H.187l-.006.001a.01.01 0 0 0-.007.003C.171-.254.17-.252.17-.251L.164-.25c-.005 0-.007.001-.007.003 0 .001-.002.002-.006.002a.021.021 0 0 0-.012.004.027.027 0 0 1-.013.004L.12-.235l-.005.003a.026.026 0 0 0-.007.003.033.033 0 0 1-.021.006l-.003.002a.002.002 0 0 1-.002-.002c0-.003-.001-.004-.004-.005-.001 0-.002.001-.002.003l-.001.02-.001.016-.002.013-.001.007v.011a.096.096 0 0 1-.003.02.1.1 0 0 0-.003.019c-.003.003-.001.006.006.009.005-.007.008-.01.011-.01a.002.002 0 0 0 .002-.002l.005-.007.009-.008C.1-.14.1-.142.099-.143h.002c.001 0 .004-.001.007-.004l.005-.004.003-.003.007-.005.005-.005.005-.003c.002 0 .004-.001.006-.004s.004-.004.006-.004.003-.001.003-.003L.149-.18l.009-.007.009-.007.001-.001L.173-.2l.005-.003c0-.002.001-.003.002-.003l.007-.005C.192-.218.197-.22.2-.219c.002 0 .003-.001.003-.003s.001-.002.004-.001h.006l.011-.002c.001 0 .004.001.007.004l.007.005.008.006.003.006c.003.003.003.004.002.005-.006 0-.009.003-.009.01 0 .004-.001.006-.002.006l-.003.005c-.001.003-.002.005-.005.004s-.005 0-.006.002c-.001.003-.003.004-.004.004-.003 0-.004.001-.004.002l-.004.003c-.003.002-.005.004-.005.006v.002l-.002.001H.204l-.002.001A.002.002 0 0 0 .2-.155l-.001.003c0 .002-.001.003-.003.003-.005 0-.008.003-.011.01l-.002.003c-.001-.001-.003 0-.006.003-.002 0-.003.001-.003.003 0 .001-.001.003-.004.004l-.005.003c-.001.001-.001 0-.002-.001s-.001 0-.002.002C.16-.119.159-.118.157-.118s-.003.001-.003.002l-.002.005-.003.005c0 .002-.005.005-.016.01L.125-.09c0 .003-.001.004-.003.004s-.003.001-.003.002l-.004.003C.112-.08.11-.078.11-.076l-.001.003-.005.004L.1-.065c-.004-.001-.006 0-.006.005 0 .002-.001.003-.004.003s-.004.001-.004.003-.001.003-.002.003l-.006.004-.007.005c-.002 0-.004.001-.006.004l-.006.004c-.002 0-.004.002-.005.005-.001.002-.002.004-.005.005-.003 0-.004.001-.004.002S.04-.02.031-.02C.017-.02.01-.023.01-.028c0-.003-.001-.005-.004-.006C.004-.035.003-.038.003-.044v-.007L.002-.057v-.005l.002-.007.002-.008.001-.009c0-.003.001-.006.004-.01.002-.002.002-.006-.001-.01C.009-.112.008-.115.009-.116.01-.117.011-.12.01-.124l.003-.007v-.01l.001-.002.001-.006v-.023l.001-.001.001-.004.001-.005v-.002C.015-.188.015-.19.018-.19.019-.19.02-.193.02-.198L.019-.206.018-.208l.001-.003.001-.003c.002-.003.002-.007 0-.012-.001-.001 0-.005.002-.01s.002-.007 0-.008L.021-.248l.001-.004.001-.004v-.008C.021-.265.021-.267.023-.27c.001-.003.002-.005.001-.006L.022-.28l.002-.003v-.006L.023-.294.024-.3l.001-.006v-.011c.001-.001 0-.002-.001-.003C.021-.321.022-.324.025-.328c.003-.003.003-.006.002-.007C.024-.34.023-.344.026-.349l.001-.009-.001-.023c0-.012.001-.019.004-.022a.008.008 0 0 0 .002-.005Z" transform="matrix(375 0 0 375 567.373 255.482)" style="fill-rule: nonzero;"></path><path d="m.276-.504.005-.002.003-.002.003-.001h.004A.036.036 0 0 0 .3-.505l.006.002c.003.001.006.005.009.01a.017.017 0 0 1 .001.012L.31-.47l-.001.002c0 .001-.001.002-.003.002-.003 0-.004.001-.004.002l-.001.001-.002.002-.003.003c-.002.003-.004.004-.005.004-.002 0-.004.002-.006.005L.28-.444l-.002.001a.002.002 0 0 1-.002.002L.274-.44.27-.437l-.001.001-.003-.002a.008.008 0 0 1-.005.002l-.005.002c-.005 0-.007.002-.007.006 0 .002-.001.003-.002.003l-.005.003-.006.003-.005.002-.006.002-.004.003-.004.004A.012.012 0 0 0 .205-.4c-.001.004-.003.004-.004.001L.199-.4l-.003.003-.002.003c0 .003-.002.004-.006.004-.002 0-.003.001-.003.003l-.003.004-.005.004-.005.005C.163-.365.157-.36.155-.36l-.006.005-.007.005c-.002 0-.003.001-.003.003a.002.002 0 0 1-.002.002c-.001-.001-.002 0-.005.003l-.004.006a.002.002 0 0 1-.002.002l-.002.002-.005.007-.006.004C.111-.321.11-.32.11-.319l-.003.004-.004.004c0 .002-.001.003-.003.003-.003.001-.006.004-.007.01l.001.003c.001 0 .002.001.002.004l.001.008.001.005-.001.004L.1-.27v.007l.001.007v.006c0 .002 0 .005.002.008l.002.007c.001.001 0 .003-.001.005l.002.004v.005c-.003 0-.003.002 0 .006l.002.002.001.006c.002 0 .002.002.001.005v.005c.001 0 .002.002.002.007s.001.008.002.009c.001.001.002.002.001.004-.001.003 0 .005.001.006a.008.008 0 0 1 .002.008L.117-.16.116-.162.115-.165v.003l.001.005c.001 0 .002.003.002.008l.001.006.001.005c0 .002.002.003.006.003l.006.002.004.003c.003 0 .005.004.006.012v.016A.037.037 0 0 0 .14-.09a.043.043 0 0 1-.006.02l-.002.007a.009.009 0 0 1-.004.007C.125-.053.124-.05.124-.049l-.003.003a.008.008 0 0 0-.005.002c-.002.002-.005.003-.01.003-.013 0-.02-.003-.02-.009 0-.002-.001-.003-.002-.003L.082-.061V-.07C.084-.073.083-.077.08-.08L.078-.084.077-.09l.001-.002.001-.005-.002-.011-.002-.008-.001-.006-.002-.006V-.13c.001-.001.002-.003.001-.006v-.011L.071-.15.07-.166v-.011C.068-.179.067-.184.066-.191v-.005L.065-.204l-.001-.01-.001-.004-.001-.004-.001-.005L.06-.235.059-.246v-.011c-.011.005-.017.009-.017.014 0 .002-.001.003-.004.003s-.004.001-.004.002l-.001.001c-.014 0-.021-.002-.021-.006 0-.001-.002-.003-.005-.004S.003-.251.003-.257L.002-.262v-.003l.002-.002.005-.004.003-.006.004-.004c.007-.005.01-.009.01-.012l.003-.003L.032-.3l.003-.006c.011-.011.016-.017.016-.019L.05-.34v-.018a.027.027 0 0 0-.001-.015C.047-.38.046-.384.047-.387l.001-.018v-.02c0-.023.002-.036.006-.039a.027.027 0 0 1 .019-.008c.005 0 .007.002.007.007l.002.007c.003.003.004.012.004.029l.001.006v.051l.001.01c.001.001.002 0 .004-.003L.096-.37l.008-.006.009-.007a.002.002 0 0 0 .002-.002c.003-.007.007-.01.01-.01S.13-.396.13-.397l.002-.001c.001 0 .003-.002.004-.005l.007-.009.007-.006.004-.003c.007-.007.012-.011.015-.011l.007-.006a.028.028 0 0 1 .008-.005l.003-.003c0-.003.002-.005.007-.006.005 0 .008-.002.009-.007L.208-.46c.003 0 .004-.001.005-.002a.008.008 0 0 1 .004-.002c.001.001.002 0 .005-.001l.003-.003c0-.003.003-.005.008-.005l.005-.004.006-.003a.002.002 0 0 0 .002-.002L.25-.483c.003 0 .004-.001.004-.002l.002-.001.002-.001.006-.006.006-.006c.002-.003.004-.005.006-.005Z" transform="matrix(375 0 0 375 696.373 255.482)" style="fill-rule: nonzero;"></path><path d="M.301-.467.299-.468l-.001.001.002.002.001-.002ZM.205-.485.192-.487.179-.489c-.007.001-.014 0-.021-.001C.147-.493.141-.494.14-.493H.115a.003.003 0 0 0-.004 0l-.002.001C.107-.495.105-.494.103-.487l-.001.01.001.011.001.014c-.001.002-.001.004.001.007v.006c-.001.003-.002.007-.001.01s0 .006-.001.01a.02.02 0 0 0 0 .011l.001.041c0 .027.001.041.002.041l.002-.001.005-.004.005-.004.003-.001c.003 0 .004-.001.004-.002L.126-.34l.001-.001.006-.004.005-.005c.004-.001.006-.003.006-.004l.004-.003.003-.003c0-.003.003-.005.008-.005.003 0 .006-.001.01-.004l.006-.005.006-.006.008-.004c.001 0 .004-.001.007-.004L.2-.394l.002-.002a.01.01 0 0 0 .007-.003l.005-.002.004-.003.008-.006C.23-.412.232-.413.233-.412l.001-.003c0-.002.002-.004.006-.007l.007-.005.005-.005.006-.003.002-.001.002-.002A.002.002 0 0 0 .264-.44c0-.001.001-.002.003-.002.003 0 .004-.001.004-.002l.003-.002.002-.002.002-.003C.28-.454.282-.455.285-.455s.004-.001.004-.003.002-.003.005-.003h.004L.292-.468c0-.003-.004-.004-.013-.003L.271-.473.263-.474a.035.035 0 0 1-.012-.003L.237-.479.229-.48.218-.483.205-.485Zm-.188-.01C.015-.494.013-.497.01-.502L.004-.509c-.003 0-.003-.001 0-.003.002-.001.002-.003.001-.008s0-.009.004-.011a.05.05 0 0 1 .026-.006l.009.001a.017.017 0 0 0 .01 0A.016.016 0 0 0 .06-.539l.002-.005c.001-.002.002-.004.001-.007-.001-.004 0-.006.002-.006l.007-.005c.003-.003.006-.006.009-.007.003-.001.005-.001.008.002a.008.008 0 0 0 .004.002l.002.001.003.008.002.011c.001.008.004.01.008.007.001-.001.002-.001.004.001s.003.002.004.001.003-.002.006-.001L.13-.539c.003-.001.005 0 .008.002.004.001.007.002.009.001.001-.001.003 0 .006.001.004.002.007.003.008.002h.011c.001-.001.002-.002.005-.001l.006.003.004.002v-.003l.003.001c.004 0 .006.001.006.002a.013.013 0 0 1 .009.001c.003.002.005.002.006.001l.003-.001.005.001a.02.02 0 0 0 .007.001l.009.001h.011a.126.126 0 0 0 .01.003l.01.002c.003 0 .005.001.005.002l.012.001c.007 0 .011.001.012.003.001.001.002.002.003.001h.003l.006.001c.004 0 .006.001.006.002H.326c.002.002.004.002.007.001.001-.001.002 0 .002.002s.002.003.005.003l.011.003a.025.025 0 0 0 .009.004c.008.002.012.01.012.025l-.001.005a.085.085 0 0 1-.013.015c-.005.007-.01.01-.013.01l-.007.004-.007.006-.008.007a.04.04 0 0 1-.011.006l-.001.002-.003.001-.014.01c.002 0 0 .002-.007.007l-.003.002c-.007 0-.01.002-.01.005 0 .005-.004.008-.011.009-.003 0-.005.001-.005.002l-.003.005C.252-.373.251-.372.25-.373l-.007.004-.006.004-.007.006-.009.005a.002.002 0 0 0-.002.002l-.005.006a.028.028 0 0 1-.008.005c-.002 0-.003.001-.003.002l-.002.001a.002.002 0 0 0-.002.002c0 .003-.002.004-.007.004l-.005.004-.006.005a.03.03 0 0 0-.01.006L.162-.31l-.004.003c-.002.003-.004.004-.005.004a.008.008 0 0 0-.004.002c0 .001-.001.002-.003.002-.003 0-.004.001-.005.004l-.003.004-.005.002-.005.003c-.002 0-.003.001-.003.003L.121-.28l-.005.006c-.003.003-.005.005-.007.005-.004.001-.005.009-.003.025l-.001.006-.001.008-.001.008c-.002.004-.001.006 0 .007l.002.01v.043l.002.008v.023c-.001.005 0 .008.001.009.002.001.003.005.003.01v.016c.002.001.003.007.003.016l.001.027v.037c0 .004-.003.008-.008.012C.101.001.096.003.092.003L.089.002.082 0C.079 0 .077-.001.077-.004c0-.006-.001-.009-.003-.01C.07-.016.068-.024.068-.038v-.006L.067-.048V-.05a.051.051 0 0 1-.002-.019c0-.011.001-.018.002-.019.002-.001.002-.004.001-.008L.065-.102v-.004L.064-.11.063-.113a.002.002 0 0 1-.002-.002L.06-.118l.001-.004V-.13L.059-.142v-.006L.057-.151.055-.156c-.001-.001 0-.002.002-.003l.001-.004-.001-.008-.001-.01a.072.072 0 0 1 .001-.026l.001-.008a.036.036 0 0 0-.002-.011C.054-.229.052-.231.049-.23.047-.23.045-.231.042-.234a.027.027 0 0 1-.005-.004C.034-.239.032-.242.032-.246v-.008c0-.003.001-.007.004-.011C.038-.268.04-.27.042-.27l.003-.002L.05-.28c.007-.009.01-.017.007-.024V-.31a.006.006 0 0 0 0-.006l.002-.013C.06-.335.061-.339.06-.34L.059-.344V-.357C.058-.358.057-.36.058-.363a.006.006 0 0 0 0-.006v-.014C.057-.384.056-.385.057-.386l.001-.008v-.031l.001-.031v-.006L.058-.465c-.001-.001 0-.002.001-.004S.06-.475.058-.48C.057-.487.05-.491.037-.491l-.01-.002-.01-.002Z" transform="matrix(375 0 0 375 815.623 255.482)" style="fill-rule: nonzero;"></path><path d="M.334-.299.331-.304.328-.31v-.003c-.001 0-.002-.001-.002-.003a.024.024 0 0 0-.004-.015v-.002L.321-.336.319-.344C.317-.346.315-.346.312-.343a.008.008 0 0 1-.004.002l-.005.004-.007.005-.001.002-.001.001-.013.011-.013.011a.048.048 0 0 0-.011.008l-.004.003-.012.01a.208.208 0 0 1-.027.023.008.008 0 0 0-.002.004l-.005.003C.204-.255.201-.253.2-.25s-.003.005-.007.008l-.005.004-.001.002a.1.1 0 0 0-.023.02.027.027 0 0 0-.006.005l-.005.005-.002.002-.003.003-.009.007-.009.008c0 .001-.001.003-.004.005l-.005.004v.003c.001.002 0 .003-.003.003S.114-.17.114-.169L.126-.17h.006l.004-.001.004-.001.002-.001.004-.001a.057.057 0 0 1 .018-.003L.17-.179l.007-.002h.005c.003.003.005.002.005-.003 0-.001.002-.002.005-.001.013.002.021.002.023 0l.013-.001.002-.001h.003l.005-.001.028-.002C.269-.19.27-.191.27-.192h.012l.006-.002c.003 0 .004-.001.004-.003v-.001c.001-.001.002 0 .003.001l.004.003.005-.001.004-.001.004-.001h.003l.008-.002c.003-.001.007 0 .01.001.004.001.007 0 .01-.001H.35c.003.001.006 0 .007-.002.004-.004.007-.004.008-.001s.002.003.003.002v-.003a.05.05 0 0 1-.003-.015c0-.003 0-.004-.001-.003L.361-.226c0-.005-.001-.007-.002-.007L.358-.236.356-.244.353-.248V-.25c.001-.001 0-.003-.002-.006L.348-.262v-.005C.347-.267.346-.268.346-.27L.345-.275C.343-.277.343-.279.343-.281L.338-.29C.335-.295.333-.298.334-.299ZM.298-.412.297-.419.295-.426.294-.433.293-.44c-.001-.003 0-.005.001-.007a.057.057 0 0 1 .004-.007l.004-.005c.001-.002.003-.003.006-.002s.004.002.005.001.005-.001.012.002c.005.002.007.005.007.009l.002.006a.008.008 0 0 1 .001.004l.004.006.003.005.001.002a.002.002 0 0 0 .002-.002l.004-.001.003-.001c0-.001.001-.002.004-.002a.01.01 0 0 0 .007-.003.011.011 0 0 1 .008-.003c.006 0 .014.003.024.01v.01l-.003.012-.009.007-.004.002C.372-.394.368-.391.368-.39l-.004.003a.016.016 0 0 0-.006.003c-.002.001-.002.002 0 .004l.002.006c-.001.003 0 .005.003.006.003.003.003.004.001.005-.001 0-.002.001-.002.003l.001.003.004.002.001.005.001.008c.001 0 .002.001.002.004s.001.005.003.005.003.002.002.005 0 .005.002.007c.001.003.003.004.005.004l.001.006a.01.01 0 0 0 .003.007c.001.002.002.003.001.004v.002c.001 0 .002.001.002.003l.001.002c.001-.001.002.001.002.004-.001.003 0 .005.002.005h.002l.001.007c0 .005.001.008.002.009.002.001.004.004.005.009l.003.014.001.007c.003 0 .005.003.005.01 0 .003.002.004.007.004l.007.001.008.005a.024.024 0 0 0 .011.004.02.02 0 0 1 .007.001l.008.001c.005.001.008.003.009.005 0 .001 0 .002.001.001h.001c.005 0 .01.01.015.029.001.004 0 .006-.003.007s-.004.004-.004.007l-.002.006a.003.003 0 0 1-.004 0c-.001-.001-.003 0-.004.002-.001.001-.002.002-.003.001L.463-.155H.454a.012.012 0 0 0-.01.002.005.005 0 0 0-.003.005c-.001.002 0 .003.001.004v.004l-.001.006c0 .002.001.003.003.003l.002-.001v.009l.001.002c.002.013.004.02.007.02.002 0 .003.001.003.004l.001.004c.001 0 .002.001.002.003s.001.003.002.003c.002 0 .006.003.011.009.005.006.006.011.005.014v.015l-.001.003c-.001 0-.003.004-.006.013C.47-.03.467-.029.463-.028a.019.019 0 0 0-.009.004c-.001.003-.003.003-.007.001C.442-.024.439-.025.438-.024.434-.022.43-.025.426-.032.425-.035.423-.036.421-.036L.42-.037a.054.054 0 0 0-.004-.015.03.03 0 0 1-.005-.013L.409-.072a.016.016 0 0 0-.003-.006.003.003 0 0 1 0-.004C.409-.085.408-.086.405-.086a.002.002 0 0 1-.002-.002A.017.017 0 0 0 .4-.095a.016.016 0 0 1-.003-.008L.396-.108C.395-.109.394-.111.395-.112s0-.004-.001-.008S.391-.126.389-.126L.388-.128l.001-.004v-.004l-.002-.01C.386-.15.384-.152.381-.152L.372-.15l-.011.002-.002-.001H.357C.355-.15.351-.15.344-.148a.058.058 0 0 1-.014.003l-.005.003-.002.001-.004-.003a.014.014 0 0 0-.009 0l-.004.002H.302C.3-.142.299-.143.299-.144c-.001-.001-.004 0-.01.005L.287-.14.283-.141.28-.14c-.001.001-.003.002-.005.001H.27c-.001.001-.002.002-.003.001l-.011.002c-.002.001-.003 0-.004-.001H.251c-.003.001-.004.002-.005.001s-.003 0-.005.001c-.002.002-.003.003-.004.002L.235-.134H.231l-.005.002a.028.028 0 0 1-.009.001L.21-.13l-.007.001H.198a.003.003 0 0 0-.004 0l-.005.002-.005.001c-.003 0-.004.001-.004.002a.002.002 0 0 1-.002.002v-.002C.179-.127.177-.127.172-.125l-.004.002-.005-.002-.007.002-.005.001-.01.003a.008.008 0 0 1-.002.005H.137v-.003l-.002.001-.004-.001C.13-.119.128-.119.126-.119a.04.04 0 0 0-.009.005L.11-.11l-.004.001C.104-.108.102-.107.1-.108.096-.111.093-.11.091-.106.09-.104.089-.103.088-.104H.085l-.004.001c-.002 0-.003.001-.003.003.001.001 0 .002-.003.001L.071-.1C.068-.101.066-.1.065-.099L.06-.096H.058l-.001.002c-.001.002-.002.003-.003.002H.05l-.006.001a.08.08 0 0 1-.025-.003H.016c-.003 0-.004-.001-.005-.003L.01-.102c0-.002-.001-.003-.003-.004C.004-.107.002-.109.002-.111a.03.03 0 0 1 .002-.008.017.017 0 0 0 0-.01c-.001-.003 0-.004.001-.005.001 0 .002-.001.002-.003S.008-.14.009-.14L.01-.141l.002-.002.004-.005.003-.005.002-.002c.002 0 .003-.001.003-.003s.001-.003.003-.003l.008-.005.006-.006c0-.001.001-.003.004-.005L.048-.18l.008-.01.009-.007.007-.005.005-.005L.08-.21l.002-.002a.002.002 0 0 0 .002-.002l.001-.003.008-.007.009-.007.003-.004C.106-.239.109-.24.112-.238L.113-.24l.003-.005C.118-.247.12-.248.121-.247l.001-.001.004-.006.006-.003.003-.001.001-.004.002-.002c0-.002.001-.003.003-.003s.005-.002.008-.005l.006-.006c.003-.001.004-.003.004-.004 0-.002.001-.003.003-.003l.002-.003.002-.002.009-.006.009-.006.013-.007c.005-.003.007-.006.007-.007 0-.002.001-.003.003-.003S.21-.32.21-.322l.005-.003C.218-.326.22-.328.22-.331c0-.002.001-.003.003-.003s.003-.001.003-.003c0-.001.001-.002.004-.002l.005-.003.003-.003.006-.005.005-.007c0-.001.001-.002.004-.002S.257-.36.257-.361s.001-.003.004-.004h.006l.001-.003c0-.002.001-.003.003-.003.003 0 .004-.001.004-.002l.002-.002.004-.003.002-.003.006-.006.007-.004c.003 0 .004-.001.005-.004L.3-.405.298-.412Z" transform="matrix(375 0 0 375 955.123 255.482)" style="fill-rule: nonzero;"></path><path d="M.208-.259.203-.278a.08.08 0 0 1-.005-.024.058.058 0 0 0-.003-.014.142.142 0 0 1-.004-.02L.19-.343.189-.347.19-.35l.001-.003a.05.05 0 0 1-.005-.02L.185-.378.184-.383.183-.389c-.001-.001-.002 0-.005.001l-.004.003-.001.003-.005.005-.006.006c-.003 0-.004.002-.004.007L.15-.356c.001.002 0 .004-.003.005-.004.001-.005.003-.005.004l-.003.004c-.003.002-.004.004-.004.005s-.001.002-.003.002l-.001.003-.002.003-.003.005-.001.002-.004.004-.005.005-.002.002-.004.004-.004.005a.028.028 0 0 1-.005.008l-.005.007-.004.005-.004.005-.001.006-.002.009c-.001.002 0 .004.001.007v.002l.001.004.001.003v.004l.001.002-.001.021.001.023.002.008.001.015.001.025c0 .016.002.024.006.024v.006c-.001.002 0 .004.003.007.002.003.002.007.001.011a.02.02 0 0 1-.004.008C.096-.09.095-.088.095-.086.094-.082.092-.08.091-.079c-.002.001-.003.002-.003.004L.083-.07a.068.068 0 0 0-.007.005c-.002.001-.002.004.001.007v.004l-.002.005c0 .002-.001.003-.004.003S.067-.044.067-.04s-.001.006-.003.006c-.003 0-.005-.01-.007-.029L.055-.07C.052-.07.049-.074.046-.081a.045.045 0 0 1-.004-.018v-.005L.041-.108C.04-.111.042-.116.048-.124v-.005C.047-.13.046-.132.047-.133l.002-.012-.001-.019-.002-.014v-.016a.002.002 0 0 0-.002-.002v-.002L.041-.201c0 .001-.001.002-.003.002a.002.002 0 0 0-.002.002l-.005.006c-.004.003-.007.004-.008.003L.017-.189.01-.191.001-.196l.001-.011.001-.007.001-.007.001-.003.001-.003.001-.005c0-.002.001-.004.004-.006a.02.02 0 0 0 .004-.006c0-.003.001-.005.002-.005l.006-.007.005-.007c0-.004.003-.009.008-.014.002-.002.003-.009.003-.021L.04-.324l.001-.037A.051.051 0 0 0 .039-.38c-.001-.001 0-.003.001-.006v-.005C.039-.392.038-.394.039-.397v-.006l.002-.015L.04-.421v-.027l.001-.007.001-.002-.003-.001.002-.001c.003 0 .007-.003.012-.008a.024.024 0 0 1 .011-.004h.005l.004.001.002.002.003.002.003.002c.007.005.008.008.004.011l.001.017-.001.014v.017l.001.05.001.008c.001 0 .002-.001.002-.003l.003-.004a.008.008 0 0 0 .002-.004c0-.001.001-.003.005-.006L.103-.37l.001-.001c.001 0 .002-.001.002-.003 0-.001.001-.002.003-.002a.008.008 0 0 0 .004-.002C.114-.379.115-.38.114-.382c-.001-.001 0-.002.002-.003.002 0 .003-.001.003-.004L.12-.391h.002c.001.001.003 0 .005-.003l.005-.007.003-.003c.002 0 .003-.001.003-.002A.03.03 0 0 1 .144-.42C.147-.425.15-.428.153-.428l.005-.003C.159-.432.16-.434.159-.435l.003-.004.004-.004.003-.005A.002.002 0 0 0 .171-.45c0-.001.001-.003.004-.005L.18-.458a.042.042 0 0 0 .009-.003.026.026 0 0 1 .007-.003l.009.006.008.007.001.002.003.003c.001.001.002.003.001.005v.004l.002.003v.005c-.001.002 0 .005.003.008.002.003.002.006.001.008v.003l.002.002-.001.002a.002.002 0 0 0-.002.002l.002.001c.001 0 .002.004.002.011a.05.05 0 0 0 .002.012l.002.01.002.004.002.005a.008.008 0 0 1-.002.004l-.001.003.001.003-.001.004.001.003h.002a.002.002 0 0 1-.002.002.023.023 0 0 1 .003.009l.002.007c.001.005.001.007-.001.007-.003.003-.002.005.001.006.001 0 .002.003.002.01 0 .006.001.009.002.009l.001.005.001.006.001.004v.003h.001c.001-.001.002-.001.002.002l-.001.003c-.001.001-.001.002.001.004a.025.025 0 0 1 .004.011c.001.007.002.011.001.014-.001.001 0 .002.001.003l.002.003c.001.001 0 .002-.001.003l.002.005c.002.003.002.005.001.005-.003 0-.002.002.003.007.001 0 .002.004.002.012.001.009.002.013.005.013s.003.001.002.004l-.001.003c-.001.001 0 .002.001.004l.003.009.003.009a.03.03 0 0 1 .002.01l.002.011.001.01.003.006.002.007.002.01.001.01.001.002.001.001c-.001.003 0 .006.002.007a.016.016 0 0 0 .006.003.016.016 0 0 1 .006.003l.004.002c.002 0 .003.002.003.007.001.005.003.007.004.007.001.001.002.004.002.01l.001.008.001.009-.001.005-.001.006v.006c-.003.007-.005.011-.005.014 0 .003-.002.004-.006.004l-.008.001-.01.001a.01.01 0 0 1-.007-.003L.276-.009.272-.012.27-.018.265-.024a.003.003 0 0 1 0-.004V-.03C.264-.03.263-.031.263-.034l-.006-.01-.001-.003a.008.008 0 0 1-.002-.005.048.048 0 0 0-.004-.012C.247-.07.246-.074.247-.076.248-.079.248-.08.246-.08H.244v-.001l.002-.008a.08.08 0 0 0-.003-.016.066.066 0 0 1-.003-.013l-.002-.01-.002-.006-.001-.004c-.001 0-.002-.001-.001-.004L.233-.148.232-.154.23-.161.228-.17.226-.183v-.003L.225-.19c0-.004-.001-.006-.002-.006S.221-.197.221-.2L.22-.204C.219-.204.218-.206.218-.21v-.004L.217-.217a.036.036 0 0 0-.006-.02.006.006 0 0 0 0-.006L.209-.251v-.004L.208-.259Z" transform="matrix(375 0 0 375 1138.503 255.482)" style="fill-rule: nonzero;"></path><path d="m.241-.137.006-.002.007-.002c.001-.001.003 0 .004.001H.26l.002.001h.004l.006-.003.002-.002.001-.008.001-.002v-.002L.274-.177a.15.15 0 0 1-.003-.022L.269-.212.268-.248c0-.02-.001-.03-.002-.03L.265-.301.264-.309.263-.318c-.001-.001-.003 0-.006.003-.004.003-.006.006-.006.007 0 .002-.001.003-.003.003l-.004.003-.002.003-.004.005-.002.003a.002.002 0 0 1-.002.002l-.005.005-.004.006-.007.005-.006.005-.001.003c0 .002-.001.003-.003.003C.203-.262.2-.26.2-.255l-.002.001-.004.003-.003.003c-.002 0-.005.003-.008.009a.039.039 0 0 1-.009.011C.17-.225.167-.222.166-.219c-.001.004-.003.006-.004.006a.034.034 0 0 0-.01.008l-.01.012-.003.003c-.001 0-.002.001-.002.003s-.002.005-.005.008a.028.028 0 0 1-.008.005.002.002 0 0 0-.002.002L.12-.171c-.001 0-.002.001-.002.003s-.001.003-.002.003c-.003 0-.004.001-.004.003l-.003.004c-.003.002-.004.004-.004.005l-.006.008-.007.009-.009.01-.007.008c-.001.001 0 .002.002.003l.01.001h.016L.11-.115l.006-.001.005-.001.01-.001c.005.001.007 0 .007-.001 0-.003.002-.004.007-.003h.006l.004-.001c.011 0 .018-.001.022-.004.001-.001.003-.002.004-.001h.007a.114.114 0 0 1 .024-.003l.006-.001.004-.001.009-.002.01-.002Zm.005-.479.003-.008.002-.007.005-.005a.016.016 0 0 1 .009-.003c.011 0 .017.009.019.026l.001.008v.007l.001.004.002.005v.002c-.002.002-.002.007.001.013.003.007.004.012.003.014s0 .004.001.007 0 .005-.001.006c-.002.002-.002.003 0 .003l.002.002v.001c.001 0 .002.001.002.004l-.002.006.001.003c.001.001 0 .004-.001.007v.006l.001.002.001.007.001.007c.001.001.002.002.001.005s-.002.006-.001.007l.001.007.003.01c.001.006.001.011-.001.014-.001.002 0 .004.001.005l.001.011.001.011-.001.004C.3-.423.3-.422.302-.422l.001.002c0 .001.002.002.006.002.017 0 .025.007.025.02l.001.005.002.004-.002.003-.007.005C.323-.38.321-.378.321-.375.32-.374.319-.372.316-.371l-.007.006c-.002.003-.002.006-.001.01l-.001.011.001.003.001.014.002.007c.001.003.002.006.001.007l-.001.005.001.002v.004l.002.006c.001.003.002.005.001.007v.006l.001.008c0 .003.001.006.003.008.003.001.003.002.001.003H.318l-.003.008.001.008v.002l.002.019.001.008c.001 0 .002.001.002.004L.32-.208c-.002.004-.002.006 0 .006l.002-.001L.321-.2l.001.02v.002l.001.004v.004l.001.003.001.005.001.008a.017.017 0 0 0 .005.002l.006-.002.005-.001c.002.001.004 0 .007-.001l.008-.001.005-.001h.004l.003.001.002.001C.372-.159.375-.16.38-.16c.004.001.007 0 .008-.001s.004-.002.007-.001a.003.003 0 0 0 .004 0L.4-.165c0-.001.001-.002.003-.002h.01l.004-.002.004-.001.001.002c0 .002.001.002.004-.001.003-.002.005-.003.006-.002.002.002.003.003.004.002l.006.001H.46c.001-.001.003 0 .006.003.007.007.011.012.011.017l.002.008c.001.004.001.006-.001.007l-.01.014-.001.002-.006.003c-.005.001-.007.002-.007.003L.453-.11a.002.002 0 0 1-.002-.002c0-.002-.003-.003-.01-.003S.43-.114.429-.113C.428-.112.426-.112.424-.114c-.003-.002-.005-.002-.007 0L.41-.113l-.005.001c0 .003-.003.004-.01.004l-.002.001C.391-.105.39-.105.39-.106c0-.002 0-.003-.001-.002L.386-.109H.381l-.008.002-.006.003c-.003.002-.005.002-.008.001L.357-.104H.355c0 .001-.002.002-.005.002-.006.003-.009.004-.01.003-.001-.002-.003-.002-.006 0l-.005.005h.002l.001.003.001.004v.003c-.001.002 0 .005.002.008l.002.009.001.009.003.009a.032.032 0 0 1 0 .014l.001.006c.001 0 .002.002.001.007l.003.014-.001.004C.346.001.344.007.338.014L.336.017.334.024a.05.05 0 0 1-.012.003C.307.027.3.025.3.022L.299.018.298.015A.017.017 0 0 0 .295.008L.291.001a.017.017 0 0 0-.003-.007c-.003-.003-.003-.005 0-.006C.29-.014.29-.017.289-.021v-.008C.291-.03.291-.031.29-.033L.288-.04.287-.059a.11.11 0 0 1-.003-.017c0-.006-.001-.009-.002-.009S.28-.086.28-.088L.276-.091.27-.089H.26l-.003.002-.003.001-.006.002-.007.001-.01.001-.006.001a.064.064 0 0 1-.015.003c-.005-.001-.007 0-.007.002H.198l-.003.001-.005.002c-.003.003-.005.003-.005 0 0-.001-.001-.002-.003-.002l-.009.001-.005.001a.002.002 0 0 0-.002.002c0 .002-.002.003-.005.002s-.005 0-.006.001a.002.002 0 0 1-.002.002L.148-.067H.143l-.004.001-.006.001-.001.001-.001.002a.002.002 0 0 1-.002-.002L.127-.067l-.005.001-.002.003c.001.002.001.003-.002.003H.11L.092-.061H.084C.076-.058.069-.057.063-.06.061-.061.059-.062.058-.061c-.001.002-.003.001-.004 0L.048-.062.045-.064.041-.066H.034c-.003.003-.005.004-.005.001L.023-.071.015-.075.014-.078A.002.002 0 0 0 .012-.08L.01-.084c0-.001-.001-.004-.004-.007C.003-.093.001-.096.002-.098v-.005l.001-.004.002-.007C.006-.118.008-.12.009-.12s.002-.001.002-.004.001-.005.003-.005c.001 0 .002-.001.002-.004 0-.002.001-.003.003-.003a.002.002 0 0 0 .002-.002c0-.002.001-.003.002-.003.002 0 .003-.001.003-.004L.03-.148l.005-.004.001-.004c-.001-.002 0-.003.001-.003S.04-.16.041-.163c.001-.005.005-.008.011-.008.001 0 .002-.001.002-.004l.001-.003.007-.005c.003-.003.005-.005.006-.008.003-.007.011-.015.026-.024.003-.001.004-.004.004-.007a.023.023 0 0 1 .005-.007l.005-.003.007-.006.006-.007.001-.002.005-.008C.13-.259.133-.261.134-.261s.002-.001.001-.003 0-.004.003-.005C.145-.272.149-.277.15-.283c.001-.002.002-.003.004-.003S.157-.287.156-.29l.002-.001c.002 0 .005-.002.009-.006a.024.024 0 0 0 .008-.01l.004-.004.008-.004.005-.005.001-.002c.001 0 .002-.001.002-.003S.196-.329.199-.33l.004-.004.005-.007c.003-.002.004-.004.004-.005l.003-.003C.219-.35.224-.355.231-.364c.002-.003.004-.005.006-.005l.008-.002.003-.004.003-.005.004-.004c.003-.001.004-.004.003-.007L.256-.397.255-.401l.001-.014V-.43L.255-.47.254-.49.253-.537v-.004L.252-.546.251-.555.25-.566.249-.584.247-.6.246-.616Z" transform="matrix(375 0 0 375 1258.873 255.482)" style="fill-rule: nonzero;"></path><path d="M.064-.06a.002.002 0 0 1-.002.002l-.009.001a.02.02 0 0 1-.011 0C.039-.057.038-.058.038-.06S.037-.063.036-.063L.027-.071v-.007c.002-.002.002-.003 0-.004L.025-.086a.006.006 0 0 1 0-.006l.001-.003a.002.002 0 0 0 .002-.002L.027-.106C.02-.114.019-.12.022-.123v-.006l.001-.009-.002-.009C.02-.148.02-.151.022-.156l.002-.008C.023-.176.022-.183.019-.184L.017-.19.016-.194.015-.197c-.001-.001 0-.001.001-.002.003 0 .004-.001.003-.004S.017-.208.018-.209v-.003C.017-.213.016-.214.017-.216l.001-.009.001-.008L.018-.25.017-.255l.001-.004.001-.002-.003-.006.002-.007c0-.003-.001-.004-.002-.004v-.005C.017-.297.017-.305.014-.307.011-.308.011-.309.012-.311a.003.003 0 0 0 0-.004c-.001-.001 0-.003.001-.007v-.011L.012-.336v-.003L.01-.345C.008-.347.008-.349.01-.352.011-.353.011-.355.009-.357.007-.358.007-.36.008-.361S.01-.364.009-.367v-.004a.008.008 0 0 0 .002-.004L.01-.386a.037.037 0 0 1-.002-.012L.007-.409.006-.42c-.001-.002 0-.004.001-.006A.008.008 0 0 0 .009-.43L.008-.433C.003-.436.001-.438.003-.441c.005-.007.006-.012.003-.015C.004-.458.004-.459.007-.46l.008-.002.004-.003v-.002l.007-.001.011.003.006.003.004.003.003.004.001.003a.014.014 0 0 0 .003.004l.001.002c.001-.001.002-.001.002.002l.001.007.001.008c.002.001.003.008.003.021 0 .012.001.019.002.02l.001.015a.126.126 0 0 0 .003.036l.002.004.002.007c0 .002-.001.003-.004.004-.001.001-.001.002.001.004.001.003.002.004.001.005L.069-.31l.001.005.002.002.001.001-.001.003c-.001 0-.002.003-.001.009l.001.007v.004l.002.004v.005l.002.005a.008.008 0 0 1-.002.008l-.001.002v.002c.001 0 .002.003.002.009l.001.032-.001.009-.003.011.003.007a.033.033 0 0 1 .003.01l.001.009a.02.02 0 0 1 0 .011c-.001.003 0 .006.001.009.001.004 0 .006-.001.007v.012c-.001.003 0 .008.001.012l.001.009c-.001.001 0 .001.001.002v.002a.122.122 0 0 0-.002.031c0 .005-.003.008-.01.009L.064-.06Z" transform="matrix(375 0 0 375 1438.873 255.482)" style="fill-rule: nonzero;"></path><path d="M.208-.259.203-.278a.08.08 0 0 1-.005-.024.058.058 0 0 0-.003-.014.142.142 0 0 1-.004-.02L.19-.343.189-.347.19-.35l.001-.003a.05.05 0 0 1-.005-.02L.185-.378.184-.383.183-.389c-.001-.001-.002 0-.005.001l-.004.003-.001.003-.005.005-.006.006c-.003 0-.004.002-.004.007L.15-.356c.001.002 0 .004-.003.005-.004.001-.005.003-.005.004l-.003.004c-.003.002-.004.004-.004.005s-.001.002-.003.002l-.001.003-.002.003-.003.005-.001.002-.004.004-.005.005-.002.002-.004.004-.004.005a.028.028 0 0 1-.005.008l-.005.007-.004.005-.004.005-.001.006-.002.009c-.001.002 0 .004.001.007v.002l.001.004.001.003v.004l.001.002-.001.021.001.023.002.008.001.015.001.025c0 .016.002.024.006.024v.006c-.001.002 0 .004.003.007.002.003.002.007.001.011a.02.02 0 0 1-.004.008C.096-.09.095-.088.095-.086.094-.082.092-.08.091-.079c-.002.001-.003.002-.003.004L.083-.07a.068.068 0 0 0-.007.005c-.002.001-.002.004.001.007v.004l-.002.005c0 .002-.001.003-.004.003S.067-.044.067-.04s-.001.006-.003.006c-.003 0-.005-.01-.007-.029L.055-.07C.052-.07.049-.074.046-.081a.045.045 0 0 1-.004-.018v-.005L.041-.108C.04-.111.042-.116.048-.124v-.005C.047-.13.046-.132.047-.133l.002-.012-.001-.019-.002-.014v-.016a.002.002 0 0 0-.002-.002v-.002L.041-.201c0 .001-.001.002-.003.002a.002.002 0 0 0-.002.002l-.005.006c-.004.003-.007.004-.008.003L.017-.189.01-.191.001-.196l.001-.011.001-.007.001-.007.001-.003.001-.003.001-.005c0-.002.001-.004.004-.006a.02.02 0 0 0 .004-.006c0-.003.001-.005.002-.005l.006-.007.005-.007c0-.004.003-.009.008-.014.002-.002.003-.009.003-.021L.04-.324l.001-.037A.051.051 0 0 0 .039-.38c-.001-.001 0-.003.001-.006v-.005C.039-.392.038-.394.039-.397v-.006l.002-.015L.04-.421v-.027l.001-.007.001-.002-.003-.001.002-.001c.003 0 .007-.003.012-.008a.024.024 0 0 1 .011-.004h.005l.004.001.002.002.003.002.003.002c.007.005.008.008.004.011l.001.017-.001.014v.017l.001.05.001.008c.001 0 .002-.001.002-.003l.003-.004a.008.008 0 0 0 .002-.004c0-.001.001-.003.005-.006L.103-.37l.001-.001c.001 0 .002-.001.002-.003 0-.001.001-.002.003-.002a.008.008 0 0 0 .004-.002C.114-.379.115-.38.114-.382c-.001-.001 0-.002.002-.003.002 0 .003-.001.003-.004L.12-.391h.002c.001.001.003 0 .005-.003l.005-.007.003-.003c.002 0 .003-.001.003-.002A.03.03 0 0 1 .144-.42C.147-.425.15-.428.153-.428l.005-.003C.159-.432.16-.434.159-.435l.003-.004.004-.004.003-.005A.002.002 0 0 0 .171-.45c0-.001.001-.003.004-.005L.18-.458a.042.042 0 0 0 .009-.003.026.026 0 0 1 .007-.003l.009.006.008.007.001.002.003.003c.001.001.002.003.001.005v.004l.002.003v.005c-.001.002 0 .005.003.008.002.003.002.006.001.008v.003l.002.002-.001.002a.002.002 0 0 0-.002.002l.002.001c.001 0 .002.004.002.011a.05.05 0 0 0 .002.012l.002.01.002.004.002.005a.008.008 0 0 1-.002.004l-.001.003.001.003-.001.004.001.003h.002a.002.002 0 0 1-.002.002.023.023 0 0 1 .003.009l.002.007c.001.005.001.007-.001.007-.003.003-.002.005.001.006.001 0 .002.003.002.01 0 .006.001.009.002.009l.001.005.001.006.001.004v.003h.001c.001-.001.002-.001.002.002l-.001.003c-.001.001-.001.002.001.004a.025.025 0 0 1 .004.011c.001.007.002.011.001.014-.001.001 0 .002.001.003l.002.003c.001.001 0 .002-.001.003l.002.005c.002.003.002.005.001.005-.003 0-.002.002.003.007.001 0 .002.004.002.012.001.009.002.013.005.013s.003.001.002.004l-.001.003c-.001.001 0 .002.001.004l.003.009.003.009a.03.03 0 0 1 .002.01l.002.011.001.01.003.006.002.007.002.01.001.01.001.002.001.001c-.001.003 0 .006.002.007a.016.016 0 0 0 .006.003.016.016 0 0 1 .006.003l.004.002c.002 0 .003.002.003.007.001.005.003.007.004.007.001.001.002.004.002.01l.001.008.001.009-.001.005-.001.006v.006c-.003.007-.005.011-.005.014 0 .003-.002.004-.006.004l-.008.001-.01.001a.01.01 0 0 1-.007-.003L.276-.009.272-.012.27-.018.265-.024a.003.003 0 0 1 0-.004V-.03C.264-.03.263-.031.263-.034l-.006-.01-.001-.003a.008.008 0 0 1-.002-.005.048.048 0 0 0-.004-.012C.247-.07.246-.074.247-.076.248-.079.248-.08.246-.08H.244v-.001l.002-.008a.08.08 0 0 0-.003-.016.066.066 0 0 1-.003-.013l-.002-.01-.002-.006-.001-.004c-.001 0-.002-.001-.001-.004L.233-.148.232-.154.23-.161.228-.17.226-.183v-.003L.225-.19c0-.004-.001-.006-.002-.006S.221-.197.221-.2L.22-.204C.219-.204.218-.206.218-.21v-.004L.217-.217a.036.036 0 0 0-.006-.02.006.006 0 0 0 0-.006L.209-.251v-.004L.208-.259Z" transform="matrix(375 0 0 375 1470.373 255.482)" style="fill-rule: nonzero;"></path><path d="M.173-.369.169-.372.163-.376c-.001 0-.003.001-.004.004 0 .003-.001.004-.004.004a.008.008 0 0 0-.002.004.002.002 0 0 1-.002.002l-.003.004a.03.03 0 0 1-.014.02l-.001.001-.002.002-.001.002-.003.004-.005.005c-.004 0-.007.003-.009.01l-.01.011a.09.09 0 0 0-.009.012.085.085 0 0 1-.01.013L.077-.27l-.005.008-.006.009-.001.002-.002.003-.002.008v.003C.062-.24.063-.24.066-.238c.002.003.003.003.004.002l.001.003c0 .002.001.004.004.006l.004.004c0 .001.001.002.004.002.003.001.004.003.004.004l.007.008c.004.005.007.007.008.007L.104-.2l.001.002.001.002a.016.016 0 0 0 .006.008c0-.001.001-.001.002.002l.001.002.007.01c.002 0 .003.001.003.002l.001.002.003.002.001.003.001.002c.002 0 .002.001.001.003s-.001.003.001.002c.001-.001.002 0 .002.002.001.003.002.004.005.005 0 0 .003.006.005.007.001.002.001.003.002.002l.002.003.003.005.003.005c0 .004.003.009.01.016l.003.003.003.004.001.001.006.007a.028.028 0 0 1 .005.008c0 .011.005.008.015-.007L.2-.1c.007-.007.011-.012.011-.015l.002-.002a.002.002 0 0 0 .002-.002l.003-.004.003-.004.003-.006.003-.005.003-.005.002-.004.006-.004c.003-.001.005-.003.005-.004l.004-.004.003-.005.003-.004.003-.004.004-.004.003-.002.004-.005.004-.004c0-.002.001-.003.002-.003l.003-.005C.277-.198.278-.2.28-.199s.003 0 .003-.003c0-.001.001-.003.004-.004L.29-.208l.004-.003.003-.004c0-.002.001-.003.003-.003.003 0 .004-.001.004-.002l.004-.004.004-.004.002-.003c.001-.001 0-.003-.002-.005A.016.016 0 0 0 .305-.24L.299-.244.293-.247.292-.248.291-.25c0-.003-.001-.004-.004-.004L.286-.255.284-.257.281-.261C.278-.262.277-.264.277-.265c0-.002-.001-.003-.002-.003a.036.036 0 0 1-.009-.007.036.036 0 0 1-.007-.009.033.033 0 0 0-.006-.008L.246-.3.242-.304c0-.002-.001-.003-.002-.003L.238-.31a.002.002 0 0 0-.002-.002c-.002 0-.003-.001-.003-.002L.227-.322.221-.33c0-.001-.001-.002-.004-.002S.213-.333.213-.336C.212-.339.208-.343.2-.348.197-.349.196-.351.196-.352L.195-.353.188-.358C.181-.365.176-.369.173-.369ZM.101-.37a.04.04 0 0 0 .006-.011c0-.001.001-.004.004-.007s.004-.006.004-.007C.116-.398.118-.399.12-.4s.003-.002.003-.004l.001-.002.005-.007C.132-.42.133-.425.132-.427L.131-.435c-.001-.003 0-.006.001-.009.001-.003.003-.004.004-.003.002 0 .003-.001.003-.002l.006-.007.005-.007.005-.008c.003-.003.004-.006.004-.008C.158-.48.16-.481.163-.484A.017.017 0 0 1 .17-.487l.003-.002C.174-.49.176-.491.179-.49a.022.022 0 0 0 .01.003l.001.002c0 .002.002.004.006.007s.005.006.002.009a.08.08 0 0 0-.005.015.008.008 0 0 1-.002.005L.19-.442l.001.01.001.005v.006c-.001.002 0 .004.001.006a.017.017 0 0 1 .002.005c0 .005.003.007.008.006l.007.003.005.003.001.002c0 .002.001.003.004.003a.012.012 0 0 1 .005.005c0 .002.001.003.002.003l.002.002.003.001c.002 0 .003.001.003.002l.001.001.002.002c.002 0 .003.001.003.003s.002.004.006.006l.005.005c0 .002.001.003.003.004.009.005.015.011.017.016.002.006.004.009.007.009.002 0 .003.001.003.002 0 .002.001.003.002.003.003 0 .003.001.002.003-.001.001 0 .003.003.006l.004.005.001.003.001.003c.002 0 .006.003.013.01l.002.002c0 .003.004.007.013.012l.006.006c0 .002.003.003.009.003l.004.003c.001.003.003.004.007.003h.006l.004.003.004.004.004.003.002.001c.003 0 .004.006.004.018l.001.005v.004c.001.002-.002.006-.007.011-.006.006-.009.01-.009.012 0 .003-.001.004-.004.004-.002 0-.003 0-.002.001l-.004.005-.005.004-.001.001c-.001 0-.003.001-.004.004-.001.002-.002.003-.005.003L.33-.184l-.004.003c-.002 0-.003.001-.003.002L.317-.17.31-.161a.002.002 0 0 1-.002.002c-.002 0-.004.002-.007.005-.003.004-.004.007-.004.009l-.001.002L.29-.14l-.005.006c-.002.002-.003.003-.004.002l-.005.008-.005.008a.002.002 0 0 1-.002.002L.266-.11l-.004.004-.004.003-.001.002-.003.005-.004.005-.003.006-.003.004-.004.004-.004.004c-.003.002-.004.004-.004.005l-.001.003-.002.001-.002.005-.002.006-.002.004-.002.004-.002.006-.003.006-.004.008-.006.006-.008.006-.006.008-.001.004C.19 0 .189-.001.188-.003L.187-.007c0-.003-.001-.004-.002-.004C.184-.012.183-.01.184-.006l.001.014c0 .003-.001.004-.002.004L.181.01.178.002.177-.009c0-.011-.002-.017-.006-.017L.169-.027.167-.032.164-.037.158-.046C.153-.051.151-.055.151-.056a.002.002 0 0 0-.002-.002.002.002 0 0 1-.002-.002c0-.003-.001-.004-.002-.004L.141-.071.134-.082.129-.087a.008.008 0 0 1-.002-.004c0-.003-.001-.004-.003-.004S.121-.096.121-.098L.118-.103C.115-.106.114-.108.114-.11L.111-.116C.108-.118.107-.12.107-.121L.104-.124.103-.125.096-.136c0-.005-.004-.011-.013-.017C.08-.154.079-.156.079-.157L.076-.161C.073-.162.072-.164.072-.165L.069-.171.066-.177c0-.001-.001-.002-.003-.002S.06-.18.06-.181L.055-.187.049-.192.042-.198C.037-.203.03-.205.021-.205c-.006 0-.009-.002-.009-.007L.007-.219C.004-.222.002-.224.003-.226V-.23L.002-.235v-.003a.008.008 0 0 0 .002-.005l.002-.004c.001 0 .004-.002.007-.008l.005-.007c.001 0 .002-.001.002-.003l.001-.002.003-.004.009-.011c.003 0 .005-.005.005-.014L.043-.3l.004-.003.003-.004.003-.003.002-.006.003-.004c.003 0 .005-.002.005-.005l.004-.004.003-.004.003-.006.003-.004.002-.002c.001.001.002 0 .005-.003l.003-.006c0-.003.001-.004.003-.004S.092-.359.092-.36l.002-.002.007-.008Z" transform="matrix(375 0 0 375 1590.753 255.482)" style="fill-rule: nonzero;"></path></svg>