<?xml version="1.0" encoding="iso-8859-1"?>
<!-- Uploaded to: SVG Repo, www.svgrepo.com, Generator: SVG Repo Mixer Tools -->
<!DOCTYPE svg PUBLIC "-//W3C//DTD SVG 1.1//EN" "http://www.w3.org/Graphics/SVG/1.1/DTD/svg11.dtd">
<svg fill="#FFA500" height="800px" width="800px" version="1.1" id="Capa_1" xmlns="http://www.w3.org/2000/svg" xmlns:xlink="http://www.w3.org/1999/xlink" 
	 viewBox="0 0 205.232 205.232" xml:space="preserve">
<path d="M155.371,114.545V83.962l29.198,29.199c1.465,1.465,3.384,2.197,5.304,2.197c1.919,0,3.839-0.732,5.304-2.197
	c2.929-2.929,2.929-7.678,0-10.606l-39.806-39.807v-4.519V22.35c0-12.324-10.767-22.35-24-22.35h-57.51
	c-13.233,0-24,10.026-24,22.35v35.879v4.519l-39.806,39.807c-2.929,2.929-2.929,7.678,0,10.606c1.465,1.464,3.385,2.197,5.304,2.197
	c1.919,0,3.839-0.732,5.304-2.197l29.198-29.199v30.584l-39.806,39.808c-2.929,2.929-2.929,7.678,0.001,10.607
	c1.464,1.465,3.384,2.197,5.303,2.197c1.919,0,3.839-0.732,5.304-2.197l29.198-29.2v24.98v22.143c0,12.324,10.767,22.35,24,22.35
	h57.51c13.233,0,24-10.026,24-22.35V160.74v-24.98l29.198,29.2c1.465,1.465,3.384,2.197,5.304,2.197
	c1.919,0,3.839-0.732,5.303-2.197c2.93-2.929,2.93-7.677,0.001-10.607L155.371,114.545z M140.371,117.655v35.585h-75.51v-35.585
	c0-0.002,0-0.003,0-0.005v-51.79c0-0.003,0-0.007,0-0.01v-0.121h75.51v0.121c0,0.003,0,0.007,0,0.01v51.79
	C140.371,117.651,140.371,117.653,140.371,117.655z M73.861,15h57.51c4.879,0,9,3.366,9,7.35v28.379h-75.51V22.35
	C64.861,18.366,68.982,15,73.861,15z M131.371,190.232h-57.51c-4.879,0-9-3.366-9-7.35V168.24h75.51v14.643
	C140.371,186.867,136.25,190.232,131.371,190.232z"/>
</svg>