<?xml version="1.0" encoding="iso-8859-1"?>
<!-- Uploaded to: SVG Repo, www.svgrepo.com, Generator: SVG Repo Mixer Tools -->
<!DOCTYPE svg PUBLIC "-//W3C//DTD SVG 1.1//EN" "http://www.w3.org/Graphics/SVG/1.1/DTD/svg11.dtd">
<svg fill="#00FF00" height="800px" width="800px" version="1.1" id="Capa_1" xmlns="http://www.w3.org/2000/svg" xmlns:xlink="http://www.w3.org/1999/xlink" 
	 viewBox="0 0 211.4 211.4" xml:space="preserve">
<g>
	<path d="M182.327,49.815c-16.482-12.067-37.006-19.272-54.901-19.272c-18.011,0-31.322,7.261-39.563,21.582
		c-6.458,11.221-9.597,26.52-9.597,46.771s3.139,35.549,9.597,46.771c8.242,14.321,21.553,21.583,39.563,21.583
		c17.895,0,38.418-7.205,54.901-19.272c18.748-13.727,29.073-31.157,29.073-49.081S201.075,63.542,182.327,49.815z M173.466,135.875
		c-13.795,10.101-31.436,16.375-46.039,16.375c-15.904,0-34.16-6.064-34.16-53.353c0-47.289,18.256-53.353,34.16-53.353
		c14.603,0,32.244,6.274,46.039,16.375C188.041,72.59,196.4,86.068,196.4,98.896S188.041,125.203,173.466,135.875z"/>
	<path d="M70.765,62.288c-1.852-3.705-6.356-5.207-10.062-3.354l-19.603,9.801c2.714-7.233,5.48-14.71,5.209-22.604
		c-0.142-4.14-3.61-7.386-7.753-7.238c-4.14,0.142-7.38,3.613-7.238,7.753c0.172,5.007-2.031,10.878-4.364,17.093
		c-1.621,4.319-3.448,9.191-4.474,14.307L4.148,87.212c-3.705,1.852-5.207,6.357-3.354,10.062c1.314,2.628,3.962,4.147,6.714,4.147
		c1.127,0,2.272-0.255,3.348-0.793l12.198-6.099c1.489,4.499,4.308,8.944,9.098,13.146c0.06,0.052,0.114,0.105,0.172,0.157
		L4.148,121.92c-3.705,1.852-5.207,6.357-3.354,10.062c1.314,2.628,3.962,4.147,6.714,4.147c1.127,0,2.272-0.255,3.348-0.793
		l26.378-13.189c-0.639,3.641-2.131,7.828-4.039,12.911c-0.999,2.663-2.076,5.536-2.996,8.546L4.148,156.63
		c-3.705,1.852-5.207,6.357-3.354,10.062c1.314,2.628,3.962,4.147,6.714,4.147c1.127,0,2.272-0.255,3.348-0.794l17.375-8.688
		c0.888,6.013,3.781,12.04,10.162,17.637c1.424,1.249,3.187,1.862,4.943,1.862c2.085,0,4.159-0.864,5.641-2.554
		c2.731-3.114,2.421-7.852-0.692-10.584c-4.777-4.191-5.996-8.39-5.197-13.788l24.325-12.163c3.705-1.852,5.207-6.357,3.354-10.062
		c-1.852-3.706-6.356-5.208-10.062-3.354l-11.157,5.579c2.004-5.996,3.586-12.635,2.744-19.311l15.122-7.561
		c3.705-1.852,5.207-6.357,3.354-10.062c-1.852-3.705-6.356-5.208-10.062-3.354l-14.382,7.191c-1.213-1.502-2.623-2.983-4.278-4.435
		c-3.181-2.79-4.78-5.585-5.261-8.734L67.411,72.35C71.116,70.498,72.618,65.993,70.765,62.288z"/>
</g>
</svg>